M48
; DRILL file KiCad 10.0.1 date 2026-06-06T12:56:03
; FORMAT={-:-/ absolute / metric / decimal}
; #@! TF.CreationDate,2026-06-06T12:56:03-04:00
; #@! TF.GenerationSoftware,Kicad,Pcbnew,10.0.1
; #@! TF.FileFunction,Plated,1,2,PTH
FMAT,2
METRIC
; #@! TA.AperFunction,Plated,PTH,ViaDrill
T1C0.300
; #@! TA.AperFunction,Plated,PTH,ComponentDrill
T2C0.600
; #@! TA.AperFunction,Plated,PTH,ComponentDrill
T3C0.700
; #@! TA.AperFunction,Plated,PTH,ComponentDrill
T4C0.800
; #@! TA.AperFunction,Plated,PTH,ComponentDrill
T5C0.900
; #@! TA.AperFunction,Plated,PTH,ComponentDrill
T6C1.000
; #@! TA.AperFunction,Plated,PTH,ComponentDrill
T7C1.100
; #@! TA.AperFunction,Plated,PTH,ComponentDrill
T8C1.200
; #@! TA.AperFunction,Plated,PTH,ComponentDrill
T9C1.300
; #@! TA.AperFunction,Plated,PTH,ComponentDrill
T10C1.600
%
G90
G05
T1
X118.0Y-85.5
X122.0Y-89.5
X122.0Y-113.0
X123.0Y-85.5
X123.5Y-87.0
X123.5Y-103.0
X127.0Y-93.5
X127.5Y-100.5
X131.5Y-102.5
X134.0Y-94.0
X138.0Y-93.5
X139.0Y-94.5
X139.5Y-97.5
X140.5Y-103.5
X142.5Y-96.5
X149.0Y-112.0
X150.5Y-93.5
X155.0Y-132.5
X156.5Y-119.5
X157.0Y-97.5
X157.0Y-111.0
X158.5Y-99.5
X159.5Y-86.0
X159.5Y-89.5
X161.0Y-80.5
X161.0Y-86.5
X161.0Y-111.0
X162.5Y-101.0
X164.0Y-97.5
X165.0Y-119.5
T2
X127.31Y-73.69
X127.31Y-75.69
X160.337Y-126.69
X162.337Y-126.69
T3
X134.27Y-77.69
X136.81Y-77.69
X139.35Y-77.69
T4
X115.0Y-98.42
X115.0Y-108.58
X120.0Y-98.42
X120.0Y-108.58
X121.31Y-83.11
X121.31Y-93.27
X124.46Y-119.0
X124.5Y-105.5
X124.5Y-108.0
X124.5Y-128.5
X125.84Y-123.69
X126.73Y-83.19
X127.0Y-119.0
X127.0Y-128.5
X128.5Y-88.0
X128.5Y-90.5
X128.912Y-103.008
X128.912Y-113.168
X129.54Y-119.0
X133.2Y-116.5
X133.42Y-135.0
X136.0Y-123.69
X136.31Y-87.94
X136.31Y-90.44
X136.89Y-83.19
X137.0Y-116.5
X141.42Y-116.5
X141.5Y-89.5
X141.5Y-112.0
X141.73Y-84.69
X142.69Y-122.19
X142.69Y-129.81
X143.58Y-135.0
X145.23Y-122.19
X145.23Y-129.81
X145.25Y-95.0
X147.75Y-95.0
X147.77Y-122.19
X147.77Y-129.81
X149.42Y-135.0
X150.31Y-122.19
X150.31Y-129.81
X151.58Y-116.5
X151.66Y-89.5
X151.66Y-112.0
X151.89Y-84.69
X154.518Y-76.236
X154.518Y-86.396
X157.23Y-85.19
X157.23Y-90.19
X157.9Y-77.452
X157.9Y-79.952
X157.91Y-95.568
X159.58Y-135.0
X159.697Y-116.5
X163.497Y-116.5
X165.53Y-95.568
X166.31Y-74.19
X166.31Y-77.99
X167.39Y-85.19
X167.39Y-90.19
X169.337Y-121.485
X169.69Y-98.69
X169.69Y-101.23
X169.69Y-103.77
X169.69Y-106.31
X172.81Y-83.38
X172.81Y-91.0
X177.31Y-98.69
X177.31Y-101.23
X177.31Y-103.77
X177.31Y-106.31
X179.497Y-121.485
T5
X134.0Y-104.925
X134.0Y-107.465
X146.31Y-76.425
X146.31Y-78.965
X161.81Y-104.92
X161.81Y-107.46
T6
X108.5Y-119.5
X108.5Y-122.04
X110.81Y-81.19
X113.35Y-81.19
X115.89Y-81.19
T7
X129.77Y-96.24
X132.31Y-96.24
X134.85Y-96.24
X153.31Y-96.61
X153.31Y-106.77
T8
X103.04Y-101.527
X103.04Y-106.527
X103.04Y-111.527
X189.732Y-101.773
X189.732Y-106.773
X189.732Y-111.773
T9
X135.56Y-68.722
X140.56Y-68.722
T10
X113.08Y-114.5
X121.38Y-114.5
X124.48Y-114.5
X146.83Y-68.69
X149.93Y-68.69
X158.23Y-68.69
X169.7Y-115.0
X178.0Y-115.0
X181.1Y-115.0
T6
G00X107.0Y-87.844
M15
G01X107.0Y-89.844
M16
G05
G00X109.0Y-93.544
M15
G01X111.0Y-93.544
M16
G05
G00X113.0Y-87.844
M15
G01X113.0Y-89.844
M16
G05
G00X180.0Y-92.0
M15
G01X180.0Y-90.0
M16
G05
G00X184.0Y-86.3
M15
G01X182.0Y-86.3
M16
G05
G00X186.0Y-92.0
M15
G01X186.0Y-90.0
M16
G05
M30
