%TF.GenerationSoftware,KiCad,Pcbnew,10.0.1*%
%TF.CreationDate,2026-06-06T12:56:01-04:00*%
%TF.ProjectId,g-01-pie-01-rev-a,672d3031-2d70-4696-952d-30312d726576,05*%
%TF.SameCoordinates,Original*%
%TF.FileFunction,Soldermask,Top*%
%TF.FilePolarity,Negative*%
%FSLAX46Y46*%
G04 Gerber Fmt 4.6, Leading zero omitted, Abs format (unit mm)*
G04 Created by KiCad (PCBNEW 10.0.1) date 2026-06-06 12:56:01*
%MOMM*%
%LPD*%
G01*
G04 APERTURE LIST*
G04 Aperture macros list*
%AMRoundRect*
0 Rectangle with rounded corners*
0 $1 Rounding radius*
0 $2 $3 $4 $5 $6 $7 $8 $9 X,Y pos of 4 corners*
0 Add a 4 corners polygon primitive as box body*
4,1,4,$2,$3,$4,$5,$6,$7,$8,$9,$2,$3,0*
0 Add four circle primitives for the rounded corners*
1,1,$1+$1,$2,$3*
1,1,$1+$1,$4,$5*
1,1,$1+$1,$6,$7*
1,1,$1+$1,$8,$9*
0 Add four rect primitives between the rounded corners*
20,1,$1+$1,$2,$3,$4,$5,0*
20,1,$1+$1,$4,$5,$6,$7,0*
20,1,$1+$1,$6,$7,$8,$9,0*
20,1,$1+$1,$8,$9,$2,$3,0*%
G04 Aperture macros list end*
%ADD10R,1.500000X1.500000*%
%ADD11C,1.500000*%
%ADD12C,1.600000*%
%ADD13C,1.800000*%
%ADD14R,1.800000X1.800000*%
%ADD15R,3.000000X3.000000*%
%ADD16C,3.000000*%
%ADD17R,1.700000X1.700000*%
%ADD18C,1.700000*%
%ADD19C,3.200000*%
%ADD20RoundRect,0.249999X0.850001X-0.850001X0.850001X0.850001X-0.850001X0.850001X-0.850001X-0.850001X0*%
%ADD21C,2.200000*%
%ADD22RoundRect,0.250000X-0.550000X-0.550000X0.550000X-0.550000X0.550000X0.550000X-0.550000X0.550000X0*%
%ADD23RoundRect,0.250000X0.350000X-0.350000X0.350000X0.350000X-0.350000X0.350000X-0.350000X-0.350000X0*%
%ADD24C,1.200000*%
%ADD25RoundRect,0.250000X0.550000X-0.950000X0.550000X0.950000X-0.550000X0.950000X-0.550000X-0.950000X0*%
%ADD26O,1.600000X2.400000*%
%ADD27RoundRect,0.250000X0.550000X-0.550000X0.550000X0.550000X-0.550000X0.550000X-0.550000X-0.550000X0*%
%ADD28R,1.905000X2.000000*%
%ADD29O,1.905000X2.000000*%
%ADD30RoundRect,0.250000X-0.950000X-0.550000X0.950000X-0.550000X0.950000X0.550000X-0.950000X0.550000X0*%
%ADD31O,2.400000X1.600000*%
%ADD32RoundRect,0.250000X-0.350000X-0.350000X0.350000X-0.350000X0.350000X0.350000X-0.350000X0.350000X0*%
%ADD33R,3.500000X3.500000*%
%ADD34RoundRect,0.750000X0.750000X1.000000X-0.750000X1.000000X-0.750000X-1.000000X0.750000X-1.000000X0*%
%ADD35RoundRect,0.875000X0.875000X0.875000X-0.875000X0.875000X-0.875000X-0.875000X0.875000X-0.875000X0*%
%ADD36RoundRect,0.750000X-0.750000X-1.000000X0.750000X-1.000000X0.750000X1.000000X-0.750000X1.000000X0*%
%ADD37RoundRect,0.875000X-0.875000X-0.875000X0.875000X-0.875000X0.875000X0.875000X-0.875000X0.875000X0*%
%ADD38RoundRect,0.250001X1.149999X1.149999X-1.149999X1.149999X-1.149999X-1.149999X1.149999X-1.149999X0*%
%ADD39C,2.800000*%
G04 APERTURE END LIST*
D10*
%TO.C,Q1*%
X124460000Y-119000000D03*
D11*
X127000000Y-119000000D03*
X129540000Y-119000000D03*
%TD*%
D12*
%TO.C,R8*%
X128911616Y-113168126D03*
X128911616Y-103008126D03*
%TD*%
%TO.C,R7*%
X154518466Y-86395925D03*
X154518466Y-76235925D03*
%TD*%
D13*
%TO.C,J9*%
X181100000Y-115000000D03*
X178000000Y-115000000D03*
X169700000Y-115000000D03*
%TD*%
%TO.C,J8*%
X124480000Y-114500000D03*
X121380000Y-114500000D03*
X113080000Y-114500000D03*
%TD*%
D14*
%TO.C,D8*%
X146310000Y-78965000D03*
D13*
X146310000Y-76425000D03*
%TD*%
D15*
%TO.C,RV1*%
X103040359Y-101527427D03*
D16*
X103040359Y-106527427D03*
X103040359Y-111527427D03*
%TD*%
D17*
%TO.C,J2*%
X108500000Y-119500000D03*
D18*
X108500000Y-122040000D03*
%TD*%
D19*
%TO.C,H4*%
X118000000Y-126000000D03*
%TD*%
D14*
%TO.C,D1*%
X134000000Y-107465000D03*
D13*
X134000000Y-104925000D03*
%TD*%
D20*
%TO.C,D5*%
X153310000Y-106770000D03*
D21*
X153310000Y-96610000D03*
%TD*%
D12*
%TO.C,C7*%
X136310000Y-87940000D03*
X136310000Y-90440000D03*
%TD*%
%TO.C,R4*%
X125840000Y-123690000D03*
X136000000Y-123690000D03*
%TD*%
D22*
%TO.C,C3*%
X159697349Y-116500000D03*
D12*
X163497349Y-116500000D03*
%TD*%
%TO.C,C10*%
X124500000Y-128500000D03*
X127000000Y-128500000D03*
%TD*%
D23*
%TO.C,C6*%
X127310000Y-75690000D03*
D24*
X127310000Y-73690000D03*
%TD*%
D12*
%TO.C,C12*%
X157900486Y-79952074D03*
X157900486Y-77452074D03*
%TD*%
%TO.C,R18*%
X167390000Y-85190000D03*
X157230000Y-85190000D03*
%TD*%
D17*
%TO.C,J7*%
X110810000Y-81190000D03*
D18*
X113350000Y-81190000D03*
X115890000Y-81190000D03*
%TD*%
D25*
%TO.C,U1*%
X142690000Y-129810000D03*
D26*
X145230000Y-129810000D03*
X147770000Y-129810000D03*
X150310000Y-129810000D03*
X150310000Y-122190000D03*
X147770000Y-122190000D03*
X145230000Y-122190000D03*
X142690000Y-122190000D03*
%TD*%
D19*
%TO.C,H1*%
X176310000Y-75690000D03*
%TD*%
D27*
%TO.C,C5*%
X166310000Y-77990000D03*
D12*
X166310000Y-74190000D03*
%TD*%
D15*
%TO.C,RV2*%
X189731558Y-111773052D03*
D16*
X189731558Y-106773052D03*
X189731558Y-101773052D03*
%TD*%
D12*
%TO.C,C9*%
X124500000Y-108000000D03*
X124500000Y-105500000D03*
%TD*%
D19*
%TO.C,H3*%
X117810000Y-75690000D03*
%TD*%
D28*
%TO.C,U3*%
X134850000Y-96240000D03*
D29*
X132310000Y-96240000D03*
X129770000Y-96240000D03*
%TD*%
D27*
%TO.C,D6*%
X172810000Y-91000000D03*
D12*
X172810000Y-83380000D03*
%TD*%
D30*
%TO.C,U4*%
X169690000Y-98690000D03*
D31*
X169690000Y-101230000D03*
X169690000Y-103770000D03*
X169690000Y-106310000D03*
X177310000Y-106310000D03*
X177310000Y-103770000D03*
X177310000Y-101230000D03*
X177310000Y-98690000D03*
%TD*%
D13*
%TO.C,J6*%
X146830000Y-68690000D03*
X158230000Y-68690000D03*
X149930000Y-68690000D03*
%TD*%
D12*
%TO.C,R14*%
X120000000Y-108580000D03*
X120000000Y-98420000D03*
%TD*%
%TO.C,R5*%
X169336821Y-121485135D03*
X179496821Y-121485135D03*
%TD*%
%TO.C,C13*%
X145250000Y-95000000D03*
X147750000Y-95000000D03*
%TD*%
%TO.C,R15*%
X121310000Y-93270000D03*
X121310000Y-83110000D03*
%TD*%
D19*
%TO.C,H2*%
X175000000Y-126500000D03*
%TD*%
D12*
%TO.C,R3*%
X115000000Y-108580000D03*
X115000000Y-98420000D03*
%TD*%
%TO.C,R1*%
X141500000Y-89500000D03*
X151660000Y-89500000D03*
%TD*%
D32*
%TO.C,C11*%
X160337401Y-126690000D03*
D24*
X162337401Y-126690000D03*
%TD*%
D33*
%TO.C,J5*%
X180000000Y-91000000D03*
D34*
X186000000Y-91000000D03*
D35*
X183000000Y-86300000D03*
%TD*%
D12*
%TO.C,R17*%
X149420000Y-135000000D03*
X159580000Y-135000000D03*
%TD*%
%TO.C,C1*%
X128500000Y-90500000D03*
X128500000Y-88000000D03*
%TD*%
%TO.C,R13*%
X141500000Y-112000000D03*
X151660000Y-112000000D03*
%TD*%
%TO.C,R6*%
X141420000Y-116500000D03*
X151580000Y-116500000D03*
%TD*%
D22*
%TO.C,D7*%
X157910050Y-95567618D03*
D12*
X165530050Y-95567618D03*
%TD*%
%TO.C,R2*%
X126730000Y-83190000D03*
X136890000Y-83190000D03*
%TD*%
D22*
%TO.C,C2*%
X133200000Y-116500000D03*
D12*
X137000000Y-116500000D03*
%TD*%
%TO.C,R16*%
X133420000Y-135000000D03*
X143580000Y-135000000D03*
%TD*%
%TO.C,R11*%
X151890000Y-84690000D03*
X141730000Y-84690000D03*
%TD*%
D14*
%TO.C,D2*%
X161810000Y-107460000D03*
D13*
X161810000Y-104920000D03*
%TD*%
D33*
%TO.C,J4*%
X113000000Y-88844321D03*
D36*
X107000000Y-88844321D03*
D37*
X110000000Y-93544321D03*
%TD*%
D38*
%TO.C,BT1*%
X140560000Y-68722500D03*
D39*
X135560000Y-68722500D03*
%TD*%
D10*
%TO.C,SW3*%
X139350000Y-77690000D03*
X136810000Y-77690000D03*
X134270000Y-77690000D03*
%TD*%
D12*
%TO.C,R12*%
X167390000Y-90190000D03*
X157230000Y-90190000D03*
%TD*%
M02*
