%TF.GenerationSoftware,KiCad,Pcbnew,10.0.1*%
%TF.CreationDate,2026-06-06T12:56:01-04:00*%
%TF.ProjectId,g-01-pie-01-rev-a,672d3031-2d70-4696-952d-30312d726576,05*%
%TF.SameCoordinates,Original*%
%TF.FileFunction,Legend,Bot*%
%TF.FilePolarity,Positive*%
%FSLAX46Y46*%
G04 Gerber Fmt 4.6, Leading zero omitted, Abs format (unit mm)*
G04 Created by KiCad (PCBNEW 10.0.1) date 2026-06-06 12:56:01*
%MOMM*%
%LPD*%
G01*
G04 APERTURE LIST*
%ADD10C,0.185208*%
%ADD11C,0.150000*%
%ADD12C,0.120000*%
G04 APERTURE END LIST*
D10*
X111310000Y-90690226D02*
X111310000Y-90690000D01*
X111387780Y-90690000D01*
X111310000Y-90690226D01*
G36*
X111310000Y-90690226D02*
G01*
X111310000Y-90690000D01*
X111387780Y-90690000D01*
X111310000Y-90690226D01*
G37*
D11*
X131736435Y-107921459D02*
X131260244Y-107588126D01*
X131736435Y-107350031D02*
X130736435Y-107350031D01*
X130736435Y-107350031D02*
X130736435Y-107730983D01*
X130736435Y-107730983D02*
X130784054Y-107826221D01*
X130784054Y-107826221D02*
X130831673Y-107873840D01*
X130831673Y-107873840D02*
X130926911Y-107921459D01*
X130926911Y-107921459D02*
X131069768Y-107921459D01*
X131069768Y-107921459D02*
X131165006Y-107873840D01*
X131165006Y-107873840D02*
X131212625Y-107826221D01*
X131212625Y-107826221D02*
X131260244Y-107730983D01*
X131260244Y-107730983D02*
X131260244Y-107350031D01*
X131165006Y-108492888D02*
X131117387Y-108397650D01*
X131117387Y-108397650D02*
X131069768Y-108350031D01*
X131069768Y-108350031D02*
X130974530Y-108302412D01*
X130974530Y-108302412D02*
X130926911Y-108302412D01*
X130926911Y-108302412D02*
X130831673Y-108350031D01*
X130831673Y-108350031D02*
X130784054Y-108397650D01*
X130784054Y-108397650D02*
X130736435Y-108492888D01*
X130736435Y-108492888D02*
X130736435Y-108683364D01*
X130736435Y-108683364D02*
X130784054Y-108778602D01*
X130784054Y-108778602D02*
X130831673Y-108826221D01*
X130831673Y-108826221D02*
X130926911Y-108873840D01*
X130926911Y-108873840D02*
X130974530Y-108873840D01*
X130974530Y-108873840D02*
X131069768Y-108826221D01*
X131069768Y-108826221D02*
X131117387Y-108778602D01*
X131117387Y-108778602D02*
X131165006Y-108683364D01*
X131165006Y-108683364D02*
X131165006Y-108492888D01*
X131165006Y-108492888D02*
X131212625Y-108397650D01*
X131212625Y-108397650D02*
X131260244Y-108350031D01*
X131260244Y-108350031D02*
X131355482Y-108302412D01*
X131355482Y-108302412D02*
X131545958Y-108302412D01*
X131545958Y-108302412D02*
X131641196Y-108350031D01*
X131641196Y-108350031D02*
X131688816Y-108397650D01*
X131688816Y-108397650D02*
X131736435Y-108492888D01*
X131736435Y-108492888D02*
X131736435Y-108683364D01*
X131736435Y-108683364D02*
X131688816Y-108778602D01*
X131688816Y-108778602D02*
X131641196Y-108826221D01*
X131641196Y-108826221D02*
X131545958Y-108873840D01*
X131545958Y-108873840D02*
X131355482Y-108873840D01*
X131355482Y-108873840D02*
X131260244Y-108826221D01*
X131260244Y-108826221D02*
X131212625Y-108778602D01*
X131212625Y-108778602D02*
X131165006Y-108683364D01*
X152454819Y-79833333D02*
X151978628Y-79500000D01*
X152454819Y-79261905D02*
X151454819Y-79261905D01*
X151454819Y-79261905D02*
X151454819Y-79642857D01*
X151454819Y-79642857D02*
X151502438Y-79738095D01*
X151502438Y-79738095D02*
X151550057Y-79785714D01*
X151550057Y-79785714D02*
X151645295Y-79833333D01*
X151645295Y-79833333D02*
X151788152Y-79833333D01*
X151788152Y-79833333D02*
X151883390Y-79785714D01*
X151883390Y-79785714D02*
X151931009Y-79738095D01*
X151931009Y-79738095D02*
X151978628Y-79642857D01*
X151978628Y-79642857D02*
X151978628Y-79261905D01*
X151454819Y-80166667D02*
X151454819Y-80833333D01*
X151454819Y-80833333D02*
X152454819Y-80404762D01*
%TO.C,R8*%
D12*
X128911616Y-112128126D02*
X128911616Y-111358126D01*
X128911616Y-104048126D02*
X128911616Y-104818126D01*
X127541616Y-104818126D02*
X130281616Y-104818126D01*
X130281616Y-111358126D01*
X127541616Y-111358126D01*
X127541616Y-104818126D01*
%TO.C,R7*%
X154518466Y-85355925D02*
X154518466Y-84585925D01*
X154518466Y-77275925D02*
X154518466Y-78045925D01*
X153148466Y-78045925D02*
X155888466Y-78045925D01*
X155888466Y-84585925D01*
X153148466Y-84585925D01*
X153148466Y-78045925D01*
%TD*%
M02*
