%TF.GenerationSoftware,KiCad,Pcbnew,10.0.1*%
%TF.CreationDate,2026-06-06T12:56:01-04:00*%
%TF.ProjectId,g-01-pie-01-rev-a,672d3031-2d70-4696-952d-30312d726576,05*%
%TF.SameCoordinates,Original*%
%TF.FileFunction,Legend,Top*%
%TF.FilePolarity,Positive*%
%FSLAX46Y46*%
G04 Gerber Fmt 4.6, Leading zero omitted, Abs format (unit mm)*
G04 Created by KiCad (PCBNEW 10.0.1) date 2026-06-06 12:56:01*
%MOMM*%
%LPD*%
G01*
G04 APERTURE LIST*
%ADD10C,0.150000*%
%ADD11C,0.120000*%
%ADD12C,0.159949*%
%ADD13C,1.800000*%
G04 APERTURE END LIST*
D10*
X126904761Y-115990057D02*
X126809523Y-115942438D01*
X126809523Y-115942438D02*
X126714285Y-115847200D01*
X126714285Y-115847200D02*
X126571428Y-115704342D01*
X126571428Y-115704342D02*
X126476190Y-115656723D01*
X126476190Y-115656723D02*
X126380952Y-115656723D01*
X126428571Y-115894819D02*
X126333333Y-115847200D01*
X126333333Y-115847200D02*
X126238095Y-115751961D01*
X126238095Y-115751961D02*
X126190476Y-115561485D01*
X126190476Y-115561485D02*
X126190476Y-115228152D01*
X126190476Y-115228152D02*
X126238095Y-115037676D01*
X126238095Y-115037676D02*
X126333333Y-114942438D01*
X126333333Y-114942438D02*
X126428571Y-114894819D01*
X126428571Y-114894819D02*
X126619047Y-114894819D01*
X126619047Y-114894819D02*
X126714285Y-114942438D01*
X126714285Y-114942438D02*
X126809523Y-115037676D01*
X126809523Y-115037676D02*
X126857142Y-115228152D01*
X126857142Y-115228152D02*
X126857142Y-115561485D01*
X126857142Y-115561485D02*
X126809523Y-115751961D01*
X126809523Y-115751961D02*
X126714285Y-115847200D01*
X126714285Y-115847200D02*
X126619047Y-115894819D01*
X126619047Y-115894819D02*
X126428571Y-115894819D01*
X127809523Y-115894819D02*
X127238095Y-115894819D01*
X127523809Y-115894819D02*
X127523809Y-114894819D01*
X127523809Y-114894819D02*
X127428571Y-115037676D01*
X127428571Y-115037676D02*
X127333333Y-115132914D01*
X127333333Y-115132914D02*
X127238095Y-115180533D01*
X179662819Y-111269333D02*
X180377104Y-111269333D01*
X180377104Y-111269333D02*
X180519961Y-111316952D01*
X180519961Y-111316952D02*
X180615200Y-111412190D01*
X180615200Y-111412190D02*
X180662819Y-111555047D01*
X180662819Y-111555047D02*
X180662819Y-111650285D01*
X180662819Y-110745523D02*
X180662819Y-110555047D01*
X180662819Y-110555047D02*
X180615200Y-110459809D01*
X180615200Y-110459809D02*
X180567580Y-110412190D01*
X180567580Y-110412190D02*
X180424723Y-110316952D01*
X180424723Y-110316952D02*
X180234247Y-110269333D01*
X180234247Y-110269333D02*
X179853295Y-110269333D01*
X179853295Y-110269333D02*
X179758057Y-110316952D01*
X179758057Y-110316952D02*
X179710438Y-110364571D01*
X179710438Y-110364571D02*
X179662819Y-110459809D01*
X179662819Y-110459809D02*
X179662819Y-110650285D01*
X179662819Y-110650285D02*
X179710438Y-110745523D01*
X179710438Y-110745523D02*
X179758057Y-110793142D01*
X179758057Y-110793142D02*
X179853295Y-110840761D01*
X179853295Y-110840761D02*
X180091390Y-110840761D01*
X180091390Y-110840761D02*
X180186628Y-110793142D01*
X180186628Y-110793142D02*
X180234247Y-110745523D01*
X180234247Y-110745523D02*
X180281866Y-110650285D01*
X180281866Y-110650285D02*
X180281866Y-110459809D01*
X180281866Y-110459809D02*
X180234247Y-110364571D01*
X180234247Y-110364571D02*
X180186628Y-110316952D01*
X180186628Y-110316952D02*
X180091390Y-110269333D01*
X123042819Y-110769333D02*
X123757104Y-110769333D01*
X123757104Y-110769333D02*
X123899961Y-110816952D01*
X123899961Y-110816952D02*
X123995200Y-110912190D01*
X123995200Y-110912190D02*
X124042819Y-111055047D01*
X124042819Y-111055047D02*
X124042819Y-111150285D01*
X123471390Y-110150285D02*
X123423771Y-110245523D01*
X123423771Y-110245523D02*
X123376152Y-110293142D01*
X123376152Y-110293142D02*
X123280914Y-110340761D01*
X123280914Y-110340761D02*
X123233295Y-110340761D01*
X123233295Y-110340761D02*
X123138057Y-110293142D01*
X123138057Y-110293142D02*
X123090438Y-110245523D01*
X123090438Y-110245523D02*
X123042819Y-110150285D01*
X123042819Y-110150285D02*
X123042819Y-109959809D01*
X123042819Y-109959809D02*
X123090438Y-109864571D01*
X123090438Y-109864571D02*
X123138057Y-109816952D01*
X123138057Y-109816952D02*
X123233295Y-109769333D01*
X123233295Y-109769333D02*
X123280914Y-109769333D01*
X123280914Y-109769333D02*
X123376152Y-109816952D01*
X123376152Y-109816952D02*
X123423771Y-109864571D01*
X123423771Y-109864571D02*
X123471390Y-109959809D01*
X123471390Y-109959809D02*
X123471390Y-110150285D01*
X123471390Y-110150285D02*
X123519009Y-110245523D01*
X123519009Y-110245523D02*
X123566628Y-110293142D01*
X123566628Y-110293142D02*
X123661866Y-110340761D01*
X123661866Y-110340761D02*
X123852342Y-110340761D01*
X123852342Y-110340761D02*
X123947580Y-110293142D01*
X123947580Y-110293142D02*
X123995200Y-110245523D01*
X123995200Y-110245523D02*
X124042819Y-110150285D01*
X124042819Y-110150285D02*
X124042819Y-109959809D01*
X124042819Y-109959809D02*
X123995200Y-109864571D01*
X123995200Y-109864571D02*
X123947580Y-109816952D01*
X123947580Y-109816952D02*
X123852342Y-109769333D01*
X123852342Y-109769333D02*
X123661866Y-109769333D01*
X123661866Y-109769333D02*
X123566628Y-109816952D01*
X123566628Y-109816952D02*
X123519009Y-109864571D01*
X123519009Y-109864571D02*
X123471390Y-109959809D01*
X106214761Y-111644819D02*
X105881428Y-111168628D01*
X105643333Y-111644819D02*
X105643333Y-110644819D01*
X105643333Y-110644819D02*
X106024285Y-110644819D01*
X106024285Y-110644819D02*
X106119523Y-110692438D01*
X106119523Y-110692438D02*
X106167142Y-110740057D01*
X106167142Y-110740057D02*
X106214761Y-110835295D01*
X106214761Y-110835295D02*
X106214761Y-110978152D01*
X106214761Y-110978152D02*
X106167142Y-111073390D01*
X106167142Y-111073390D02*
X106119523Y-111121009D01*
X106119523Y-111121009D02*
X106024285Y-111168628D01*
X106024285Y-111168628D02*
X105643333Y-111168628D01*
X106500476Y-110644819D02*
X106833809Y-111644819D01*
X106833809Y-111644819D02*
X107167142Y-110644819D01*
X108024285Y-111644819D02*
X107452857Y-111644819D01*
X107738571Y-111644819D02*
X107738571Y-110644819D01*
X107738571Y-110644819D02*
X107643333Y-110787676D01*
X107643333Y-110787676D02*
X107548095Y-110882914D01*
X107548095Y-110882914D02*
X107452857Y-110930533D01*
X151664819Y-107031904D02*
X150664819Y-107031904D01*
X151664819Y-106460476D02*
X151093390Y-106889047D01*
X150664819Y-106460476D02*
X151236247Y-107031904D01*
X139169580Y-89356666D02*
X139217200Y-89404285D01*
X139217200Y-89404285D02*
X139264819Y-89547142D01*
X139264819Y-89547142D02*
X139264819Y-89642380D01*
X139264819Y-89642380D02*
X139217200Y-89785237D01*
X139217200Y-89785237D02*
X139121961Y-89880475D01*
X139121961Y-89880475D02*
X139026723Y-89928094D01*
X139026723Y-89928094D02*
X138836247Y-89975713D01*
X138836247Y-89975713D02*
X138693390Y-89975713D01*
X138693390Y-89975713D02*
X138502914Y-89928094D01*
X138502914Y-89928094D02*
X138407676Y-89880475D01*
X138407676Y-89880475D02*
X138312438Y-89785237D01*
X138312438Y-89785237D02*
X138264819Y-89642380D01*
X138264819Y-89642380D02*
X138264819Y-89547142D01*
X138264819Y-89547142D02*
X138312438Y-89404285D01*
X138312438Y-89404285D02*
X138360057Y-89356666D01*
X138264819Y-89023332D02*
X138264819Y-88356666D01*
X138264819Y-88356666D02*
X139264819Y-88785237D01*
X171464819Y-91261904D02*
X170464819Y-91261904D01*
X171464819Y-90690476D02*
X170893390Y-91119047D01*
X170464819Y-90690476D02*
X171036247Y-91261904D01*
X150264819Y-71523333D02*
X150979104Y-71523333D01*
X150979104Y-71523333D02*
X151121961Y-71570952D01*
X151121961Y-71570952D02*
X151217200Y-71666190D01*
X151217200Y-71666190D02*
X151264819Y-71809047D01*
X151264819Y-71809047D02*
X151264819Y-71904285D01*
X150264819Y-70618571D02*
X150264819Y-70809047D01*
X150264819Y-70809047D02*
X150312438Y-70904285D01*
X150312438Y-70904285D02*
X150360057Y-70951904D01*
X150360057Y-70951904D02*
X150502914Y-71047142D01*
X150502914Y-71047142D02*
X150693390Y-71094761D01*
X150693390Y-71094761D02*
X151074342Y-71094761D01*
X151074342Y-71094761D02*
X151169580Y-71047142D01*
X151169580Y-71047142D02*
X151217200Y-70999523D01*
X151217200Y-70999523D02*
X151264819Y-70904285D01*
X151264819Y-70904285D02*
X151264819Y-70713809D01*
X151264819Y-70713809D02*
X151217200Y-70618571D01*
X151217200Y-70618571D02*
X151169580Y-70570952D01*
X151169580Y-70570952D02*
X151074342Y-70523333D01*
X151074342Y-70523333D02*
X150836247Y-70523333D01*
X150836247Y-70523333D02*
X150741009Y-70570952D01*
X150741009Y-70570952D02*
X150693390Y-70618571D01*
X150693390Y-70618571D02*
X150645771Y-70713809D01*
X150645771Y-70713809D02*
X150645771Y-70904285D01*
X150645771Y-70904285D02*
X150693390Y-70999523D01*
X150693390Y-70999523D02*
X150741009Y-71047142D01*
X150741009Y-71047142D02*
X150836247Y-71094761D01*
X126359580Y-89416666D02*
X126407200Y-89464285D01*
X126407200Y-89464285D02*
X126454819Y-89607142D01*
X126454819Y-89607142D02*
X126454819Y-89702380D01*
X126454819Y-89702380D02*
X126407200Y-89845237D01*
X126407200Y-89845237D02*
X126311961Y-89940475D01*
X126311961Y-89940475D02*
X126216723Y-89988094D01*
X126216723Y-89988094D02*
X126026247Y-90035713D01*
X126026247Y-90035713D02*
X125883390Y-90035713D01*
X125883390Y-90035713D02*
X125692914Y-89988094D01*
X125692914Y-89988094D02*
X125597676Y-89940475D01*
X125597676Y-89940475D02*
X125502438Y-89845237D01*
X125502438Y-89845237D02*
X125454819Y-89702380D01*
X125454819Y-89702380D02*
X125454819Y-89607142D01*
X125454819Y-89607142D02*
X125502438Y-89464285D01*
X125502438Y-89464285D02*
X125550057Y-89416666D01*
X126454819Y-88464285D02*
X126454819Y-89035713D01*
X126454819Y-88749999D02*
X125454819Y-88749999D01*
X125454819Y-88749999D02*
X125597676Y-88845237D01*
X125597676Y-88845237D02*
X125692914Y-88940475D01*
X125692914Y-88940475D02*
X125740533Y-89035713D01*
X157648145Y-94222437D02*
X157648145Y-93222437D01*
X158219573Y-94222437D02*
X157791002Y-93651008D01*
X158219573Y-93222437D02*
X157648145Y-93793865D01*
X137524285Y-71527276D02*
X137667142Y-71574895D01*
X137667142Y-71574895D02*
X137714761Y-71622514D01*
X137714761Y-71622514D02*
X137762380Y-71717752D01*
X137762380Y-71717752D02*
X137762380Y-71860609D01*
X137762380Y-71860609D02*
X137714761Y-71955847D01*
X137714761Y-71955847D02*
X137667142Y-72003467D01*
X137667142Y-72003467D02*
X137571904Y-72051086D01*
X137571904Y-72051086D02*
X137190952Y-72051086D01*
X137190952Y-72051086D02*
X137190952Y-71051086D01*
X137190952Y-71051086D02*
X137524285Y-71051086D01*
X137524285Y-71051086D02*
X137619523Y-71098705D01*
X137619523Y-71098705D02*
X137667142Y-71146324D01*
X137667142Y-71146324D02*
X137714761Y-71241562D01*
X137714761Y-71241562D02*
X137714761Y-71336800D01*
X137714761Y-71336800D02*
X137667142Y-71432038D01*
X137667142Y-71432038D02*
X137619523Y-71479657D01*
X137619523Y-71479657D02*
X137524285Y-71527276D01*
X137524285Y-71527276D02*
X137190952Y-71527276D01*
X138048095Y-71051086D02*
X138619523Y-71051086D01*
X138333809Y-72051086D02*
X138333809Y-71051086D01*
X139476666Y-72051086D02*
X138905238Y-72051086D01*
X139190952Y-72051086D02*
X139190952Y-71051086D01*
X139190952Y-71051086D02*
X139095714Y-71193943D01*
X139095714Y-71193943D02*
X139000476Y-71289181D01*
X139000476Y-71289181D02*
X138905238Y-71336800D01*
X137755408Y-79221516D02*
X137898265Y-79269135D01*
X137898265Y-79269135D02*
X138136360Y-79269135D01*
X138136360Y-79269135D02*
X138231598Y-79221516D01*
X138231598Y-79221516D02*
X138279217Y-79173896D01*
X138279217Y-79173896D02*
X138326836Y-79078658D01*
X138326836Y-79078658D02*
X138326836Y-78983420D01*
X138326836Y-78983420D02*
X138279217Y-78888182D01*
X138279217Y-78888182D02*
X138231598Y-78840563D01*
X138231598Y-78840563D02*
X138136360Y-78792944D01*
X138136360Y-78792944D02*
X137945884Y-78745325D01*
X137945884Y-78745325D02*
X137850646Y-78697706D01*
X137850646Y-78697706D02*
X137803027Y-78650087D01*
X137803027Y-78650087D02*
X137755408Y-78554849D01*
X137755408Y-78554849D02*
X137755408Y-78459611D01*
X137755408Y-78459611D02*
X137803027Y-78364373D01*
X137803027Y-78364373D02*
X137850646Y-78316754D01*
X137850646Y-78316754D02*
X137945884Y-78269135D01*
X137945884Y-78269135D02*
X138183979Y-78269135D01*
X138183979Y-78269135D02*
X138326836Y-78316754D01*
X138660170Y-78269135D02*
X138898265Y-79269135D01*
X138898265Y-79269135D02*
X139088741Y-78554849D01*
X139088741Y-78554849D02*
X139279217Y-79269135D01*
X139279217Y-79269135D02*
X139517313Y-78269135D01*
X139803027Y-78269135D02*
X140422074Y-78269135D01*
X140422074Y-78269135D02*
X140088741Y-78650087D01*
X140088741Y-78650087D02*
X140231598Y-78650087D01*
X140231598Y-78650087D02*
X140326836Y-78697706D01*
X140326836Y-78697706D02*
X140374455Y-78745325D01*
X140374455Y-78745325D02*
X140422074Y-78840563D01*
X140422074Y-78840563D02*
X140422074Y-79078658D01*
X140422074Y-79078658D02*
X140374455Y-79173896D01*
X140374455Y-79173896D02*
X140326836Y-79221516D01*
X140326836Y-79221516D02*
X140231598Y-79269135D01*
X140231598Y-79269135D02*
X139945884Y-79269135D01*
X139945884Y-79269135D02*
X139850646Y-79221516D01*
X139850646Y-79221516D02*
X139803027Y-79173896D01*
%TO.C,Q1*%
D11*
X125200000Y-120850000D02*
X128800000Y-120850000D01*
X124643600Y-117901193D02*
G75*
G02*
X127000000Y-116400000I2356400J-1098807D01*
G01*
X125200000Y-120850000D02*
G75*
G02*
X124675816Y-120122795I1800000J1850000D01*
G01*
X127000000Y-116400000D02*
G75*
G02*
X129356400Y-117901193I0J-2600000D01*
G01*
X129324184Y-120122795D02*
G75*
G02*
X128800000Y-120850000I-2324184J1122795D01*
G01*
%TO.C,J9*%
D10*
X168420000Y-119500000D02*
X179320000Y-119500000D01*
X168420000Y-119500000D02*
X168420000Y-110500000D01*
X179320000Y-119500000D02*
X179320000Y-110500000D01*
X174620000Y-116800000D02*
X174620000Y-113200000D01*
X172820000Y-115000000D02*
X176420000Y-115000000D01*
X168420000Y-110500000D02*
X179320000Y-110500000D01*
X176420000Y-115000000D02*
G75*
G02*
X172820000Y-115000000I-1800000J0D01*
G01*
X172820000Y-115000000D02*
G75*
G02*
X176420000Y-115000000I1800000J0D01*
G01*
%TO.C,J8*%
X111800000Y-119000000D02*
X122700000Y-119000000D01*
X111800000Y-119000000D02*
X111800000Y-110000000D01*
X122700000Y-119000000D02*
X122700000Y-110000000D01*
X118000000Y-116300000D02*
X118000000Y-112700000D01*
X116200000Y-114500000D02*
X119800000Y-114500000D01*
X111800000Y-110000000D02*
X122700000Y-110000000D01*
X119800000Y-114500000D02*
G75*
G02*
X116200000Y-114500000I-1800000J0D01*
G01*
X116200000Y-114500000D02*
G75*
G02*
X119800000Y-114500000I1800000J0D01*
G01*
%TO.C,D8*%
D11*
X144765000Y-80255000D02*
X147855000Y-80255000D01*
X144765170Y-80255000D02*
G75*
G02*
X146310000Y-74705000I1544830J2560000D01*
G01*
X146310000Y-74705000D02*
G75*
G02*
X147854830Y-80255000I0J-2990000D01*
G01*
X148810000Y-77695000D02*
G75*
G02*
X143810000Y-77695000I-2500000J0D01*
G01*
X143810000Y-77695000D02*
G75*
G02*
X148810000Y-77695000I2500000J0D01*
G01*
%TO.C,RV1*%
X84120359Y-109647427D02*
X84120359Y-103407427D01*
X94120359Y-103407427D02*
X84120359Y-103407427D01*
X94120359Y-109647427D02*
X84120359Y-109647427D01*
X94120359Y-110147427D02*
X94120359Y-102907427D01*
X99120359Y-102907427D02*
X94120359Y-102907427D01*
X99120359Y-110147427D02*
X94120359Y-110147427D01*
X99120359Y-115597427D02*
X99120359Y-97457427D01*
X109860359Y-97457427D02*
X99120359Y-97457427D01*
X109860359Y-115597427D02*
X99120359Y-115597427D01*
X109860359Y-115597427D02*
X109860359Y-97457427D01*
%TO.C,J2*%
X107170000Y-120770000D02*
X107170000Y-123370000D01*
X107170000Y-120770000D02*
X109830000Y-120770000D01*
X107170000Y-123370000D02*
X109830000Y-123370000D01*
X108500000Y-118170000D02*
X109830000Y-118170000D01*
X109830000Y-118170000D02*
X109830000Y-119500000D01*
X109830000Y-120770000D02*
X109830000Y-123370000D01*
%TO.C,D1*%
X132455000Y-108755000D02*
X135545000Y-108755000D01*
X132455170Y-108755000D02*
G75*
G02*
X134000000Y-103205000I1544830J2560000D01*
G01*
X134000000Y-103205000D02*
G75*
G02*
X135544830Y-108755000I0J-2990000D01*
G01*
X136500000Y-106195000D02*
G75*
G02*
X131500000Y-106195000I-2500000J0D01*
G01*
X131500000Y-106195000D02*
G75*
G02*
X136500000Y-106195000I2500000J0D01*
G01*
%TO.C,D5*%
X151840000Y-103390000D02*
X154780000Y-103390000D01*
X151840000Y-103510000D02*
X154780000Y-103510000D01*
X151840000Y-103630000D02*
X154780000Y-103630000D01*
X153310000Y-97950000D02*
X153310000Y-98970000D01*
X153310000Y-105430000D02*
X153310000Y-104410000D01*
X151840000Y-98970000D02*
X154780000Y-98970000D01*
X154780000Y-104410000D01*
X151840000Y-104410000D01*
X151840000Y-98970000D01*
%TO.C,C7*%
X134940000Y-86570000D02*
X137680000Y-86570000D01*
X134940000Y-91810000D02*
X134940000Y-86570000D01*
X137680000Y-86570000D02*
X137680000Y-91810000D01*
X137680000Y-91810000D02*
X134940000Y-91810000D01*
%TO.C,R4*%
X126880000Y-123690000D02*
X127650000Y-123690000D01*
X134960000Y-123690000D02*
X134190000Y-123690000D01*
X127650000Y-122320000D02*
X134190000Y-122320000D01*
X134190000Y-125060000D01*
X127650000Y-125060000D01*
X127650000Y-122320000D01*
%TO.C,C3*%
X157187651Y-114185000D02*
X157987651Y-114185000D01*
X157587651Y-113785000D02*
X157587651Y-114585000D01*
X161597349Y-112420000D02*
X161597349Y-120580000D01*
X161637349Y-112420000D02*
X161637349Y-120580000D01*
X161677349Y-112421000D02*
X161677349Y-120579000D01*
X161717349Y-112422000D02*
X161717349Y-120578000D01*
X161757349Y-112423000D02*
X161757349Y-120577000D01*
X161797349Y-112425000D02*
X161797349Y-120575000D01*
X161837349Y-112427000D02*
X161837349Y-120573000D01*
X161877349Y-112430000D02*
X161877349Y-120570000D01*
X161917349Y-112432000D02*
X161917349Y-120568000D01*
X161957349Y-112436000D02*
X161957349Y-120564000D01*
X161997349Y-112439000D02*
X161997349Y-120561000D01*
X162037349Y-112444000D02*
X162037349Y-120556000D01*
X162077349Y-112448000D02*
X162077349Y-120552000D01*
X162117349Y-112453000D02*
X162117349Y-120547000D01*
X162157349Y-112458000D02*
X162157349Y-120542000D01*
X162197349Y-112464000D02*
X162197349Y-120536000D01*
X162237349Y-112470000D02*
X162237349Y-120530000D01*
X162277349Y-112477000D02*
X162277349Y-120523000D01*
X162317349Y-112483000D02*
X162317349Y-120517000D01*
X162357349Y-112491000D02*
X162357349Y-120509000D01*
X162397349Y-112498000D02*
X162397349Y-120502000D01*
X162437349Y-112507000D02*
X162437349Y-120493000D01*
X162477349Y-112515000D02*
X162477349Y-115460000D01*
X162477349Y-117540000D02*
X162477349Y-120485000D01*
X162517349Y-112524000D02*
X162517349Y-115460000D01*
X162517349Y-117540000D02*
X162517349Y-120476000D01*
X162557349Y-112533000D02*
X162557349Y-115460000D01*
X162557349Y-117540000D02*
X162557349Y-120467000D01*
X162597349Y-112543000D02*
X162597349Y-115460000D01*
X162597349Y-117540000D02*
X162597349Y-120457000D01*
X162637349Y-112553000D02*
X162637349Y-115460000D01*
X162637349Y-117540000D02*
X162637349Y-120447000D01*
X162677349Y-112564000D02*
X162677349Y-115460000D01*
X162677349Y-117540000D02*
X162677349Y-120436000D01*
X162717349Y-112575000D02*
X162717349Y-115460000D01*
X162717349Y-117540000D02*
X162717349Y-120425000D01*
X162757349Y-112587000D02*
X162757349Y-115460000D01*
X162757349Y-117540000D02*
X162757349Y-120413000D01*
X162797349Y-112599000D02*
X162797349Y-115460000D01*
X162797349Y-117540000D02*
X162797349Y-120401000D01*
X162837349Y-112611000D02*
X162837349Y-115460000D01*
X162837349Y-117540000D02*
X162837349Y-120389000D01*
X162877349Y-112624000D02*
X162877349Y-115460000D01*
X162877349Y-117540000D02*
X162877349Y-120376000D01*
X162917349Y-112637000D02*
X162917349Y-115460000D01*
X162917349Y-117540000D02*
X162917349Y-120363000D01*
X162957349Y-112651000D02*
X162957349Y-115460000D01*
X162957349Y-117540000D02*
X162957349Y-120349000D01*
X162997349Y-112665000D02*
X162997349Y-115460000D01*
X162997349Y-117540000D02*
X162997349Y-120335000D01*
X163037349Y-112680000D02*
X163037349Y-115460000D01*
X163037349Y-117540000D02*
X163037349Y-120320000D01*
X163077349Y-112695000D02*
X163077349Y-115460000D01*
X163077349Y-117540000D02*
X163077349Y-120305000D01*
X163117349Y-112711000D02*
X163117349Y-115460000D01*
X163117349Y-117540000D02*
X163117349Y-120289000D01*
X163157349Y-112727000D02*
X163157349Y-115460000D01*
X163157349Y-117540000D02*
X163157349Y-120273000D01*
X163197349Y-112743000D02*
X163197349Y-115460000D01*
X163197349Y-117540000D02*
X163197349Y-120257000D01*
X163237349Y-112760000D02*
X163237349Y-115460000D01*
X163237349Y-117540000D02*
X163237349Y-120240000D01*
X163277349Y-112778000D02*
X163277349Y-115460000D01*
X163277349Y-117540000D02*
X163277349Y-120222000D01*
X163317349Y-112796000D02*
X163317349Y-115460000D01*
X163317349Y-117540000D02*
X163317349Y-120204000D01*
X163357349Y-112815000D02*
X163357349Y-115460000D01*
X163357349Y-117540000D02*
X163357349Y-120185000D01*
X163397349Y-112834000D02*
X163397349Y-115460000D01*
X163397349Y-117540000D02*
X163397349Y-120166000D01*
X163437349Y-112854000D02*
X163437349Y-115460000D01*
X163437349Y-117540000D02*
X163437349Y-120146000D01*
X163477349Y-112874000D02*
X163477349Y-115460000D01*
X163477349Y-117540000D02*
X163477349Y-120126000D01*
X163517349Y-112895000D02*
X163517349Y-115460000D01*
X163517349Y-117540000D02*
X163517349Y-120105000D01*
X163557349Y-112916000D02*
X163557349Y-115460000D01*
X163557349Y-117540000D02*
X163557349Y-120084000D01*
X163597349Y-112938000D02*
X163597349Y-115460000D01*
X163597349Y-117540000D02*
X163597349Y-120062000D01*
X163637349Y-112961000D02*
X163637349Y-115460000D01*
X163637349Y-117540000D02*
X163637349Y-120039000D01*
X163677349Y-112984000D02*
X163677349Y-115460000D01*
X163677349Y-117540000D02*
X163677349Y-120016000D01*
X163717349Y-113007000D02*
X163717349Y-115460000D01*
X163717349Y-117540000D02*
X163717349Y-119993000D01*
X163757349Y-113032000D02*
X163757349Y-115460000D01*
X163757349Y-117540000D02*
X163757349Y-119968000D01*
X163797349Y-113057000D02*
X163797349Y-115460000D01*
X163797349Y-117540000D02*
X163797349Y-119943000D01*
X163837349Y-113082000D02*
X163837349Y-115460000D01*
X163837349Y-117540000D02*
X163837349Y-119918000D01*
X163877349Y-113108000D02*
X163877349Y-115460000D01*
X163877349Y-117540000D02*
X163877349Y-119892000D01*
X163917349Y-113135000D02*
X163917349Y-115460000D01*
X163917349Y-117540000D02*
X163917349Y-119865000D01*
X163957349Y-113163000D02*
X163957349Y-115460000D01*
X163957349Y-117540000D02*
X163957349Y-119837000D01*
X163997349Y-113191000D02*
X163997349Y-115460000D01*
X163997349Y-117540000D02*
X163997349Y-119809000D01*
X164037349Y-113220000D02*
X164037349Y-115460000D01*
X164037349Y-117540000D02*
X164037349Y-119780000D01*
X164077349Y-113250000D02*
X164077349Y-115460000D01*
X164077349Y-117540000D02*
X164077349Y-119750000D01*
X164117349Y-113281000D02*
X164117349Y-115460000D01*
X164117349Y-117540000D02*
X164117349Y-119719000D01*
X164157349Y-113312000D02*
X164157349Y-115460000D01*
X164157349Y-117540000D02*
X164157349Y-119688000D01*
X164197349Y-113344000D02*
X164197349Y-115460000D01*
X164197349Y-117540000D02*
X164197349Y-119656000D01*
X164237349Y-113377000D02*
X164237349Y-115460000D01*
X164237349Y-117540000D02*
X164237349Y-119623000D01*
X164277349Y-113411000D02*
X164277349Y-115460000D01*
X164277349Y-117540000D02*
X164277349Y-119589000D01*
X164317349Y-113445000D02*
X164317349Y-115460000D01*
X164317349Y-117540000D02*
X164317349Y-119555000D01*
X164357349Y-113481000D02*
X164357349Y-115460000D01*
X164357349Y-117540000D02*
X164357349Y-119519000D01*
X164397349Y-113518000D02*
X164397349Y-115460000D01*
X164397349Y-117540000D02*
X164397349Y-119482000D01*
X164437349Y-113555000D02*
X164437349Y-115460000D01*
X164437349Y-117540000D02*
X164437349Y-119445000D01*
X164477349Y-113594000D02*
X164477349Y-115460000D01*
X164477349Y-117540000D02*
X164477349Y-119406000D01*
X164517349Y-113633000D02*
X164517349Y-115460000D01*
X164517349Y-117540000D02*
X164517349Y-119367000D01*
X164557349Y-113674000D02*
X164557349Y-119326000D01*
X164597349Y-113716000D02*
X164597349Y-119284000D01*
X164637349Y-113759000D02*
X164637349Y-119241000D01*
X164677349Y-113804000D02*
X164677349Y-119196000D01*
X164717349Y-113849000D02*
X164717349Y-119151000D01*
X164757349Y-113896000D02*
X164757349Y-119104000D01*
X164797349Y-113945000D02*
X164797349Y-119055000D01*
X164837349Y-113995000D02*
X164837349Y-119005000D01*
X164877349Y-114047000D02*
X164877349Y-118953000D01*
X164917349Y-114100000D02*
X164917349Y-118900000D01*
X164957349Y-114156000D02*
X164957349Y-118844000D01*
X164997349Y-114213000D02*
X164997349Y-118787000D01*
X165037349Y-114273000D02*
X165037349Y-118727000D01*
X165077349Y-114335000D02*
X165077349Y-118665000D01*
X165117349Y-114399000D02*
X165117349Y-118601000D01*
X165157349Y-114466000D02*
X165157349Y-118534000D01*
X165197349Y-114536000D02*
X165197349Y-118464000D01*
X165237349Y-114610000D02*
X165237349Y-118390000D01*
X165277349Y-114687000D02*
X165277349Y-118313000D01*
X165317349Y-114769000D02*
X165317349Y-118231000D01*
X165357349Y-114856000D02*
X165357349Y-118144000D01*
X165397349Y-114948000D02*
X165397349Y-118052000D01*
X165437349Y-115047000D02*
X165437349Y-117953000D01*
X165477349Y-115154000D02*
X165477349Y-117846000D01*
X165517349Y-115272000D02*
X165517349Y-117728000D01*
X165557349Y-115403000D02*
X165557349Y-117597000D01*
X165597349Y-115553000D02*
X165597349Y-117447000D01*
X165637349Y-115732000D02*
X165637349Y-117268000D01*
X165677349Y-115967000D02*
X165677349Y-117033000D01*
X165717349Y-116500000D02*
G75*
G02*
X157477349Y-116500000I-4120000J0D01*
G01*
X157477349Y-116500000D02*
G75*
G02*
X165717349Y-116500000I4120000J0D01*
G01*
%TO.C,C10*%
X123130000Y-127130000D02*
X128370000Y-127130000D01*
X123130000Y-129870000D02*
X123130000Y-127130000D01*
X128370000Y-127130000D02*
X128370000Y-129870000D01*
X128370000Y-129870000D02*
X123130000Y-129870000D01*
%TO.C,C6*%
X125230000Y-74650000D02*
X129390000Y-74650000D01*
X125230000Y-74690000D02*
X129390000Y-74690000D01*
X125232000Y-74610000D02*
X129388000Y-74610000D01*
X125233000Y-74570000D02*
X129387000Y-74570000D01*
X125236000Y-74530000D02*
X129384000Y-74530000D01*
X125239000Y-74490000D02*
X126470000Y-74490000D01*
X125244000Y-74450000D02*
X126470000Y-74450000D01*
X125249000Y-74410000D02*
X126470000Y-74410000D01*
X125254000Y-74370000D02*
X126470000Y-74370000D01*
X125261000Y-74330000D02*
X126470000Y-74330000D01*
X125268000Y-74290000D02*
X126470000Y-74290000D01*
X125276000Y-74250000D02*
X126470000Y-74250000D01*
X125285000Y-74210000D02*
X126470000Y-74210000D01*
X125295000Y-74170000D02*
X126470000Y-74170000D01*
X125305000Y-74130000D02*
X126470000Y-74130000D01*
X125317000Y-74090000D02*
X126470000Y-74090000D01*
X125329000Y-74050000D02*
X126470000Y-74050000D01*
X125342000Y-74010000D02*
X126470000Y-74010000D01*
X125356000Y-73970000D02*
X126470000Y-73970000D01*
X125371000Y-73930000D02*
X126470000Y-73930000D01*
X125387000Y-73890000D02*
X126470000Y-73890000D01*
X125404000Y-73850000D02*
X126470000Y-73850000D01*
X125421000Y-73810000D02*
X126470000Y-73810000D01*
X125440000Y-73770000D02*
X126470000Y-73770000D01*
X125460000Y-73730000D02*
X126470000Y-73730000D01*
X125481000Y-73690000D02*
X126470000Y-73690000D01*
X125503000Y-73650000D02*
X126470000Y-73650000D01*
X125526000Y-73610000D02*
X126470000Y-73610000D01*
X125550000Y-73570000D02*
X126470000Y-73570000D01*
X125576000Y-73530000D02*
X126470000Y-73530000D01*
X125602000Y-73490000D02*
X126470000Y-73490000D01*
X125630000Y-73450000D02*
X126470000Y-73450000D01*
X125660000Y-73410000D02*
X126470000Y-73410000D01*
X125691000Y-73370000D02*
X126470000Y-73370000D01*
X125724000Y-73330000D02*
X126470000Y-73330000D01*
X125758000Y-73290000D02*
X126470000Y-73290000D01*
X125794000Y-73250000D02*
X126470000Y-73250000D01*
X125832000Y-73210000D02*
X126470000Y-73210000D01*
X125872000Y-73170000D02*
X126470000Y-73170000D01*
X125914000Y-73130000D02*
X126470000Y-73130000D01*
X125915000Y-76759801D02*
X126315000Y-76759801D01*
X125959000Y-73090000D02*
X126470000Y-73090000D01*
X126007000Y-73050000D02*
X126470000Y-73050000D01*
X126057000Y-73010000D02*
X126470000Y-73010000D01*
X126111000Y-72970000D02*
X126470000Y-72970000D01*
X126115000Y-76959801D02*
X126115000Y-76559801D01*
X126168000Y-72930000D02*
X126470000Y-72930000D01*
X126230000Y-72890000D02*
X126470000Y-72890000D01*
X126297000Y-72850000D02*
X128323000Y-72850000D01*
X126370000Y-72810000D02*
X128250000Y-72810000D01*
X126451000Y-72770000D02*
X128169000Y-72770000D01*
X126542000Y-72730000D02*
X128078000Y-72730000D01*
X126647000Y-72690000D02*
X127973000Y-72690000D01*
X126773000Y-72650000D02*
X127847000Y-72650000D01*
X126940000Y-72610000D02*
X127680000Y-72610000D01*
X128150000Y-72890000D02*
X128390000Y-72890000D01*
X128150000Y-72930000D02*
X128452000Y-72930000D01*
X128150000Y-72970000D02*
X128509000Y-72970000D01*
X128150000Y-73010000D02*
X128563000Y-73010000D01*
X128150000Y-73050000D02*
X128613000Y-73050000D01*
X128150000Y-73090000D02*
X128661000Y-73090000D01*
X128150000Y-73130000D02*
X128706000Y-73130000D01*
X128150000Y-73170000D02*
X128748000Y-73170000D01*
X128150000Y-73210000D02*
X128788000Y-73210000D01*
X128150000Y-73250000D02*
X128826000Y-73250000D01*
X128150000Y-73290000D02*
X128862000Y-73290000D01*
X128150000Y-73330000D02*
X128896000Y-73330000D01*
X128150000Y-73370000D02*
X128929000Y-73370000D01*
X128150000Y-73410000D02*
X128960000Y-73410000D01*
X128150000Y-73450000D02*
X128990000Y-73450000D01*
X128150000Y-73490000D02*
X129018000Y-73490000D01*
X128150000Y-73530000D02*
X129044000Y-73530000D01*
X128150000Y-73570000D02*
X129070000Y-73570000D01*
X128150000Y-73610000D02*
X129094000Y-73610000D01*
X128150000Y-73650000D02*
X129117000Y-73650000D01*
X128150000Y-73690000D02*
X129139000Y-73690000D01*
X128150000Y-73730000D02*
X129160000Y-73730000D01*
X128150000Y-73770000D02*
X129180000Y-73770000D01*
X128150000Y-73810000D02*
X129199000Y-73810000D01*
X128150000Y-73850000D02*
X129216000Y-73850000D01*
X128150000Y-73890000D02*
X129233000Y-73890000D01*
X128150000Y-73930000D02*
X129249000Y-73930000D01*
X128150000Y-73970000D02*
X129264000Y-73970000D01*
X128150000Y-74010000D02*
X129278000Y-74010000D01*
X128150000Y-74050000D02*
X129291000Y-74050000D01*
X128150000Y-74090000D02*
X129303000Y-74090000D01*
X128150000Y-74130000D02*
X129315000Y-74130000D01*
X128150000Y-74170000D02*
X129325000Y-74170000D01*
X128150000Y-74210000D02*
X129335000Y-74210000D01*
X128150000Y-74250000D02*
X129344000Y-74250000D01*
X128150000Y-74290000D02*
X129352000Y-74290000D01*
X128150000Y-74330000D02*
X129359000Y-74330000D01*
X128150000Y-74370000D02*
X129366000Y-74370000D01*
X128150000Y-74410000D02*
X129371000Y-74410000D01*
X128150000Y-74450000D02*
X129376000Y-74450000D01*
X128150000Y-74490000D02*
X129381000Y-74490000D01*
X129430000Y-74690000D02*
G75*
G02*
X125190000Y-74690000I-2120000J0D01*
G01*
X125190000Y-74690000D02*
G75*
G02*
X129430000Y-74690000I2120000J0D01*
G01*
%TO.C,C12*%
X156480486Y-80722074D02*
X156480486Y-76682074D01*
X157201486Y-80722074D02*
X156480486Y-80722074D01*
X159320486Y-80722074D02*
X158599486Y-80722074D01*
X156480486Y-76682074D02*
X157201486Y-76682074D01*
X158599486Y-76682074D02*
X159320486Y-76682074D01*
X159320486Y-76682074D02*
X159320486Y-80722074D01*
%TO.C,R18*%
X158270000Y-85190000D02*
X159040000Y-85190000D01*
X166350000Y-85190000D02*
X165580000Y-85190000D01*
X159040000Y-83820000D02*
X165580000Y-83820000D01*
X165580000Y-86560000D01*
X159040000Y-86560000D01*
X159040000Y-83820000D01*
%TO.C,J7*%
X109480000Y-79860000D02*
X110810000Y-79860000D01*
X109480000Y-81190000D02*
X109480000Y-79860000D01*
X112080000Y-79860000D02*
X117220000Y-79860000D01*
X112080000Y-82520000D02*
X112080000Y-79860000D01*
X112080000Y-82520000D02*
X117220000Y-82520000D01*
X117220000Y-82520000D02*
X117220000Y-79860000D01*
%TO.C,U1*%
X139835000Y-123750000D02*
X139835000Y-125000000D01*
X139835000Y-127000000D02*
X139835000Y-128250000D01*
X139835000Y-128250000D02*
X153165000Y-128250000D01*
X153165000Y-123750000D02*
X139835000Y-123750000D01*
X153165000Y-128250000D02*
X153165000Y-123750000D01*
X139835000Y-125000000D02*
G75*
G02*
X139835000Y-127000000I0J-1000000D01*
G01*
%TO.C,C5*%
X162230000Y-76050000D02*
X170390000Y-76050000D01*
X162230000Y-76090000D02*
X170390000Y-76090000D01*
X162231000Y-76010000D02*
X170389000Y-76010000D01*
X162232000Y-75970000D02*
X170388000Y-75970000D01*
X162233000Y-75930000D02*
X170387000Y-75930000D01*
X162235000Y-75890000D02*
X170385000Y-75890000D01*
X162237000Y-75850000D02*
X170383000Y-75850000D01*
X162240000Y-75810000D02*
X170380000Y-75810000D01*
X162242000Y-75770000D02*
X170378000Y-75770000D01*
X162246000Y-75730000D02*
X170374000Y-75730000D01*
X162249000Y-75690000D02*
X170371000Y-75690000D01*
X162254000Y-75650000D02*
X170366000Y-75650000D01*
X162258000Y-75610000D02*
X170362000Y-75610000D01*
X162263000Y-75570000D02*
X170357000Y-75570000D01*
X162268000Y-75530000D02*
X170352000Y-75530000D01*
X162274000Y-75490000D02*
X170346000Y-75490000D01*
X162280000Y-75450000D02*
X170340000Y-75450000D01*
X162287000Y-75410000D02*
X170333000Y-75410000D01*
X162293000Y-75370000D02*
X170327000Y-75370000D01*
X162301000Y-75330000D02*
X170319000Y-75330000D01*
X162308000Y-75290000D02*
X170312000Y-75290000D01*
X162317000Y-75250000D02*
X170303000Y-75250000D01*
X162325000Y-75210000D02*
X165270000Y-75210000D01*
X162334000Y-75170000D02*
X165270000Y-75170000D01*
X162343000Y-75130000D02*
X165270000Y-75130000D01*
X162353000Y-75090000D02*
X165270000Y-75090000D01*
X162363000Y-75050000D02*
X165270000Y-75050000D01*
X162374000Y-75010000D02*
X165270000Y-75010000D01*
X162385000Y-74970000D02*
X165270000Y-74970000D01*
X162397000Y-74930000D02*
X165270000Y-74930000D01*
X162409000Y-74890000D02*
X165270000Y-74890000D01*
X162421000Y-74850000D02*
X165270000Y-74850000D01*
X162434000Y-74810000D02*
X165270000Y-74810000D01*
X162447000Y-74770000D02*
X165270000Y-74770000D01*
X162461000Y-74730000D02*
X165270000Y-74730000D01*
X162475000Y-74690000D02*
X165270000Y-74690000D01*
X162490000Y-74650000D02*
X165270000Y-74650000D01*
X162505000Y-74610000D02*
X165270000Y-74610000D01*
X162521000Y-74570000D02*
X165270000Y-74570000D01*
X162537000Y-74530000D02*
X165270000Y-74530000D01*
X162553000Y-74490000D02*
X165270000Y-74490000D01*
X162570000Y-74450000D02*
X165270000Y-74450000D01*
X162588000Y-74410000D02*
X165270000Y-74410000D01*
X162606000Y-74370000D02*
X165270000Y-74370000D01*
X162625000Y-74330000D02*
X165270000Y-74330000D01*
X162644000Y-74290000D02*
X165270000Y-74290000D01*
X162664000Y-74250000D02*
X165270000Y-74250000D01*
X162684000Y-74210000D02*
X165270000Y-74210000D01*
X162705000Y-74170000D02*
X165270000Y-74170000D01*
X162726000Y-74130000D02*
X165270000Y-74130000D01*
X162748000Y-74090000D02*
X165270000Y-74090000D01*
X162771000Y-74050000D02*
X165270000Y-74050000D01*
X162794000Y-74010000D02*
X165270000Y-74010000D01*
X162817000Y-73970000D02*
X165270000Y-73970000D01*
X162842000Y-73930000D02*
X165270000Y-73930000D01*
X162867000Y-73890000D02*
X165270000Y-73890000D01*
X162892000Y-73850000D02*
X165270000Y-73850000D01*
X162918000Y-73810000D02*
X165270000Y-73810000D01*
X162945000Y-73770000D02*
X165270000Y-73770000D01*
X162973000Y-73730000D02*
X165270000Y-73730000D01*
X163001000Y-73690000D02*
X165270000Y-73690000D01*
X163030000Y-73650000D02*
X165270000Y-73650000D01*
X163060000Y-73610000D02*
X165270000Y-73610000D01*
X163091000Y-73570000D02*
X165270000Y-73570000D01*
X163122000Y-73530000D02*
X165270000Y-73530000D01*
X163154000Y-73490000D02*
X165270000Y-73490000D01*
X163187000Y-73450000D02*
X165270000Y-73450000D01*
X163221000Y-73410000D02*
X165270000Y-73410000D01*
X163255000Y-73370000D02*
X165270000Y-73370000D01*
X163291000Y-73330000D02*
X165270000Y-73330000D01*
X163328000Y-73290000D02*
X165270000Y-73290000D01*
X163365000Y-73250000D02*
X165270000Y-73250000D01*
X163404000Y-73210000D02*
X165270000Y-73210000D01*
X163443000Y-73170000D02*
X165270000Y-73170000D01*
X163484000Y-73130000D02*
X169136000Y-73130000D01*
X163526000Y-73090000D02*
X169094000Y-73090000D01*
X163569000Y-73050000D02*
X169051000Y-73050000D01*
X163595000Y-80099698D02*
X164395000Y-80099698D01*
X163614000Y-73010000D02*
X169006000Y-73010000D01*
X163659000Y-72970000D02*
X168961000Y-72970000D01*
X163706000Y-72930000D02*
X168914000Y-72930000D01*
X163755000Y-72890000D02*
X168865000Y-72890000D01*
X163805000Y-72850000D02*
X168815000Y-72850000D01*
X163857000Y-72810000D02*
X168763000Y-72810000D01*
X163910000Y-72770000D02*
X168710000Y-72770000D01*
X163966000Y-72730000D02*
X168654000Y-72730000D01*
X163995000Y-80499698D02*
X163995000Y-79699698D01*
X164023000Y-72690000D02*
X168597000Y-72690000D01*
X164083000Y-72650000D02*
X168537000Y-72650000D01*
X164145000Y-72610000D02*
X168475000Y-72610000D01*
X164209000Y-72570000D02*
X168411000Y-72570000D01*
X164276000Y-72530000D02*
X168344000Y-72530000D01*
X164346000Y-72490000D02*
X168274000Y-72490000D01*
X164420000Y-72450000D02*
X168200000Y-72450000D01*
X164497000Y-72410000D02*
X168123000Y-72410000D01*
X164579000Y-72370000D02*
X168041000Y-72370000D01*
X164666000Y-72330000D02*
X167954000Y-72330000D01*
X164758000Y-72290000D02*
X167862000Y-72290000D01*
X164857000Y-72250000D02*
X167763000Y-72250000D01*
X164964000Y-72210000D02*
X167656000Y-72210000D01*
X165082000Y-72170000D02*
X167538000Y-72170000D01*
X165213000Y-72130000D02*
X167407000Y-72130000D01*
X165363000Y-72090000D02*
X167257000Y-72090000D01*
X165542000Y-72050000D02*
X167078000Y-72050000D01*
X165777000Y-72010000D02*
X166843000Y-72010000D01*
X167350000Y-73170000D02*
X169177000Y-73170000D01*
X167350000Y-73210000D02*
X169216000Y-73210000D01*
X167350000Y-73250000D02*
X169255000Y-73250000D01*
X167350000Y-73290000D02*
X169292000Y-73290000D01*
X167350000Y-73330000D02*
X169329000Y-73330000D01*
X167350000Y-73370000D02*
X169365000Y-73370000D01*
X167350000Y-73410000D02*
X169399000Y-73410000D01*
X167350000Y-73450000D02*
X169433000Y-73450000D01*
X167350000Y-73490000D02*
X169466000Y-73490000D01*
X167350000Y-73530000D02*
X169498000Y-73530000D01*
X167350000Y-73570000D02*
X169529000Y-73570000D01*
X167350000Y-73610000D02*
X169560000Y-73610000D01*
X167350000Y-73650000D02*
X169590000Y-73650000D01*
X167350000Y-73690000D02*
X169619000Y-73690000D01*
X167350000Y-73730000D02*
X169647000Y-73730000D01*
X167350000Y-73770000D02*
X169675000Y-73770000D01*
X167350000Y-73810000D02*
X169702000Y-73810000D01*
X167350000Y-73850000D02*
X169728000Y-73850000D01*
X167350000Y-73890000D02*
X169753000Y-73890000D01*
X167350000Y-73930000D02*
X169778000Y-73930000D01*
X167350000Y-73970000D02*
X169803000Y-73970000D01*
X167350000Y-74010000D02*
X169826000Y-74010000D01*
X167350000Y-74050000D02*
X169849000Y-74050000D01*
X167350000Y-74090000D02*
X169872000Y-74090000D01*
X167350000Y-74130000D02*
X169894000Y-74130000D01*
X167350000Y-74170000D02*
X169915000Y-74170000D01*
X167350000Y-74210000D02*
X169936000Y-74210000D01*
X167350000Y-74250000D02*
X169956000Y-74250000D01*
X167350000Y-74290000D02*
X169976000Y-74290000D01*
X167350000Y-74330000D02*
X169995000Y-74330000D01*
X167350000Y-74370000D02*
X170014000Y-74370000D01*
X167350000Y-74410000D02*
X170032000Y-74410000D01*
X167350000Y-74450000D02*
X170050000Y-74450000D01*
X167350000Y-74490000D02*
X170067000Y-74490000D01*
X167350000Y-74530000D02*
X170083000Y-74530000D01*
X167350000Y-74570000D02*
X170099000Y-74570000D01*
X167350000Y-74610000D02*
X170115000Y-74610000D01*
X167350000Y-74650000D02*
X170130000Y-74650000D01*
X167350000Y-74690000D02*
X170145000Y-74690000D01*
X167350000Y-74730000D02*
X170159000Y-74730000D01*
X167350000Y-74770000D02*
X170173000Y-74770000D01*
X167350000Y-74810000D02*
X170186000Y-74810000D01*
X167350000Y-74850000D02*
X170199000Y-74850000D01*
X167350000Y-74890000D02*
X170211000Y-74890000D01*
X167350000Y-74930000D02*
X170223000Y-74930000D01*
X167350000Y-74970000D02*
X170235000Y-74970000D01*
X167350000Y-75010000D02*
X170246000Y-75010000D01*
X167350000Y-75050000D02*
X170257000Y-75050000D01*
X167350000Y-75090000D02*
X170267000Y-75090000D01*
X167350000Y-75130000D02*
X170277000Y-75130000D01*
X167350000Y-75170000D02*
X170286000Y-75170000D01*
X167350000Y-75210000D02*
X170295000Y-75210000D01*
X170430000Y-76090000D02*
G75*
G02*
X162190000Y-76090000I-4120000J0D01*
G01*
X162190000Y-76090000D02*
G75*
G02*
X170430000Y-76090000I4120000J0D01*
G01*
%TO.C,RV2*%
X182911558Y-97703052D02*
X182911558Y-115843052D01*
X182911558Y-97703052D02*
X193651558Y-97703052D01*
X182911558Y-115843052D02*
X193651558Y-115843052D01*
X193651558Y-97703052D02*
X193651558Y-115843052D01*
X193651558Y-103153052D02*
X198651558Y-103153052D01*
X193651558Y-110393052D02*
X198651558Y-110393052D01*
X198651558Y-103153052D02*
X198651558Y-110393052D01*
X198651558Y-103653052D02*
X208651558Y-103653052D01*
X198651558Y-109893052D02*
X208651558Y-109893052D01*
X208651558Y-103653052D02*
X208651558Y-109893052D01*
%TO.C,C9*%
X123080000Y-104730000D02*
X123801000Y-104730000D01*
X123080000Y-108770000D02*
X123080000Y-104730000D01*
X123801000Y-108770000D02*
X123080000Y-108770000D01*
X125199000Y-104730000D02*
X125920000Y-104730000D01*
X125920000Y-104730000D02*
X125920000Y-108770000D01*
X125920000Y-108770000D02*
X125199000Y-108770000D01*
%TO.C,U3*%
X127200000Y-94880000D02*
X137420000Y-94880000D01*
X127200000Y-99500000D02*
X127200000Y-94880000D01*
X130460000Y-99500000D02*
X130460000Y-98120000D01*
X134160000Y-99500000D02*
X134160000Y-98120000D01*
X137420000Y-94880000D02*
X137420000Y-99500000D01*
X137420000Y-98120000D02*
X127200000Y-98120000D01*
X137420000Y-99500000D02*
X127200000Y-99500000D01*
%TO.C,D6*%
X171690000Y-88470000D02*
X173930000Y-88470000D01*
X171690000Y-88590000D02*
X173930000Y-88590000D01*
X171690000Y-88710000D02*
X173930000Y-88710000D01*
X172810000Y-84420000D02*
X172810000Y-85070000D01*
X172810000Y-89960000D02*
X172810000Y-89310000D01*
X171690000Y-85070000D02*
X173930000Y-85070000D01*
X173930000Y-89310000D01*
X171690000Y-89310000D01*
X171690000Y-85070000D01*
%TO.C,U4*%
X171250000Y-95835000D02*
X171250000Y-109165000D01*
X171250000Y-109165000D02*
X175750000Y-109165000D01*
X172500000Y-95835000D02*
X171250000Y-95835000D01*
X175750000Y-95835000D02*
X174500000Y-95835000D01*
X175750000Y-109165000D02*
X175750000Y-95835000D01*
X174500000Y-95835000D02*
G75*
G02*
X172500000Y-95835000I-1000000J0D01*
G01*
%TO.C,J6*%
D10*
X148610000Y-64190000D02*
X148610000Y-73190000D01*
X153310000Y-66890000D02*
X153310000Y-70490000D01*
X155110000Y-68690000D02*
X151510000Y-68690000D01*
X159510000Y-64190000D02*
X148610000Y-64190000D01*
X159510000Y-64190000D02*
X159510000Y-73190000D01*
X159510000Y-73190000D02*
X148610000Y-73190000D01*
X155110000Y-68690000D02*
G75*
G02*
X151510000Y-68690000I-1800000J0D01*
G01*
X151510000Y-68690000D02*
G75*
G02*
X155110000Y-68690000I1800000J0D01*
G01*
%TO.C,R14*%
D11*
X120000000Y-99460000D02*
X120000000Y-100230000D01*
X120000000Y-107540000D02*
X120000000Y-106770000D01*
X118630000Y-100230000D02*
X121370000Y-100230000D01*
X121370000Y-106770000D01*
X118630000Y-106770000D01*
X118630000Y-100230000D01*
%TO.C,R5*%
X170376821Y-121485135D02*
X171146821Y-121485135D01*
X178456821Y-121485135D02*
X177686821Y-121485135D01*
X171146821Y-120115135D02*
X177686821Y-120115135D01*
X177686821Y-122855135D01*
X171146821Y-122855135D01*
X171146821Y-120115135D01*
%TO.C,C13*%
X144480000Y-93580000D02*
X148520000Y-93580000D01*
X144480000Y-94301000D02*
X144480000Y-93580000D01*
X144480000Y-96420000D02*
X144480000Y-95699000D01*
X148520000Y-93580000D02*
X148520000Y-94301000D01*
X148520000Y-95699000D02*
X148520000Y-96420000D01*
X148520000Y-96420000D02*
X144480000Y-96420000D01*
%TO.C,R15*%
X121310000Y-84150000D02*
X121310000Y-84920000D01*
X121310000Y-92230000D02*
X121310000Y-91460000D01*
X119940000Y-84920000D02*
X122680000Y-84920000D01*
X122680000Y-91460000D01*
X119940000Y-91460000D01*
X119940000Y-84920000D01*
%TO.C,R3*%
X115000000Y-99460000D02*
X115000000Y-100230000D01*
X115000000Y-107540000D02*
X115000000Y-106770000D01*
X113630000Y-100230000D02*
X116370000Y-100230000D01*
X116370000Y-106770000D01*
X113630000Y-106770000D01*
X113630000Y-100230000D01*
%TO.C,R1*%
X142540000Y-89500000D02*
X143310000Y-89500000D01*
X150620000Y-89500000D02*
X149850000Y-89500000D01*
X143310000Y-88130000D02*
X149850000Y-88130000D01*
X149850000Y-90870000D01*
X143310000Y-90870000D01*
X143310000Y-88130000D01*
%TO.C,C11*%
X159067600Y-125495000D02*
X159467600Y-125495000D01*
X159267600Y-125295000D02*
X159267600Y-125695000D01*
X161337401Y-124610000D02*
X161337401Y-128770000D01*
X161377401Y-124610000D02*
X161377401Y-128770000D01*
X161417401Y-124612000D02*
X161417401Y-128768000D01*
X161457401Y-124613000D02*
X161457401Y-128767000D01*
X161497401Y-124616000D02*
X161497401Y-128764000D01*
X161537401Y-124619000D02*
X161537401Y-125850000D01*
X161537401Y-127530000D02*
X161537401Y-128761000D01*
X161577401Y-124624000D02*
X161577401Y-125850000D01*
X161577401Y-127530000D02*
X161577401Y-128756000D01*
X161617401Y-124629000D02*
X161617401Y-125850000D01*
X161617401Y-127530000D02*
X161617401Y-128751000D01*
X161657401Y-124634000D02*
X161657401Y-125850000D01*
X161657401Y-127530000D02*
X161657401Y-128746000D01*
X161697401Y-124641000D02*
X161697401Y-125850000D01*
X161697401Y-127530000D02*
X161697401Y-128739000D01*
X161737401Y-124648000D02*
X161737401Y-125850000D01*
X161737401Y-127530000D02*
X161737401Y-128732000D01*
X161777401Y-124656000D02*
X161777401Y-125850000D01*
X161777401Y-127530000D02*
X161777401Y-128724000D01*
X161817401Y-124665000D02*
X161817401Y-125850000D01*
X161817401Y-127530000D02*
X161817401Y-128715000D01*
X161857401Y-124675000D02*
X161857401Y-125850000D01*
X161857401Y-127530000D02*
X161857401Y-128705000D01*
X161897401Y-124685000D02*
X161897401Y-125850000D01*
X161897401Y-127530000D02*
X161897401Y-128695000D01*
X161937401Y-124697000D02*
X161937401Y-125850000D01*
X161937401Y-127530000D02*
X161937401Y-128683000D01*
X161977401Y-124709000D02*
X161977401Y-125850000D01*
X161977401Y-127530000D02*
X161977401Y-128671000D01*
X162017401Y-124722000D02*
X162017401Y-125850000D01*
X162017401Y-127530000D02*
X162017401Y-128658000D01*
X162057401Y-124736000D02*
X162057401Y-125850000D01*
X162057401Y-127530000D02*
X162057401Y-128644000D01*
X162097401Y-124751000D02*
X162097401Y-125850000D01*
X162097401Y-127530000D02*
X162097401Y-128629000D01*
X162137401Y-124767000D02*
X162137401Y-125850000D01*
X162137401Y-127530000D02*
X162137401Y-128613000D01*
X162177401Y-124784000D02*
X162177401Y-125850000D01*
X162177401Y-127530000D02*
X162177401Y-128596000D01*
X162217401Y-124801000D02*
X162217401Y-125850000D01*
X162217401Y-127530000D02*
X162217401Y-128579000D01*
X162257401Y-124820000D02*
X162257401Y-125850000D01*
X162257401Y-127530000D02*
X162257401Y-128560000D01*
X162297401Y-124840000D02*
X162297401Y-125850000D01*
X162297401Y-127530000D02*
X162297401Y-128540000D01*
X162337401Y-124861000D02*
X162337401Y-125850000D01*
X162337401Y-127530000D02*
X162337401Y-128519000D01*
X162377401Y-124883000D02*
X162377401Y-125850000D01*
X162377401Y-127530000D02*
X162377401Y-128497000D01*
X162417401Y-124906000D02*
X162417401Y-125850000D01*
X162417401Y-127530000D02*
X162417401Y-128474000D01*
X162457401Y-124930000D02*
X162457401Y-125850000D01*
X162457401Y-127530000D02*
X162457401Y-128450000D01*
X162497401Y-124956000D02*
X162497401Y-125850000D01*
X162497401Y-127530000D02*
X162497401Y-128424000D01*
X162537401Y-124982000D02*
X162537401Y-125850000D01*
X162537401Y-127530000D02*
X162537401Y-128398000D01*
X162577401Y-125010000D02*
X162577401Y-125850000D01*
X162577401Y-127530000D02*
X162577401Y-128370000D01*
X162617401Y-125040000D02*
X162617401Y-125850000D01*
X162617401Y-127530000D02*
X162617401Y-128340000D01*
X162657401Y-125071000D02*
X162657401Y-125850000D01*
X162657401Y-127530000D02*
X162657401Y-128309000D01*
X162697401Y-125104000D02*
X162697401Y-125850000D01*
X162697401Y-127530000D02*
X162697401Y-128276000D01*
X162737401Y-125138000D02*
X162737401Y-125850000D01*
X162737401Y-127530000D02*
X162737401Y-128242000D01*
X162777401Y-125174000D02*
X162777401Y-125850000D01*
X162777401Y-127530000D02*
X162777401Y-128206000D01*
X162817401Y-125212000D02*
X162817401Y-125850000D01*
X162817401Y-127530000D02*
X162817401Y-128168000D01*
X162857401Y-125252000D02*
X162857401Y-125850000D01*
X162857401Y-127530000D02*
X162857401Y-128128000D01*
X162897401Y-125294000D02*
X162897401Y-125850000D01*
X162897401Y-127530000D02*
X162897401Y-128086000D01*
X162937401Y-125339000D02*
X162937401Y-125850000D01*
X162937401Y-127530000D02*
X162937401Y-128041000D01*
X162977401Y-125387000D02*
X162977401Y-125850000D01*
X162977401Y-127530000D02*
X162977401Y-127993000D01*
X163017401Y-125437000D02*
X163017401Y-125850000D01*
X163017401Y-127530000D02*
X163017401Y-127943000D01*
X163057401Y-125491000D02*
X163057401Y-125850000D01*
X163057401Y-127530000D02*
X163057401Y-127889000D01*
X163097401Y-125548000D02*
X163097401Y-125850000D01*
X163097401Y-127530000D02*
X163097401Y-127832000D01*
X163137401Y-125610000D02*
X163137401Y-125850000D01*
X163137401Y-127530000D02*
X163137401Y-127770000D01*
X163177401Y-125677000D02*
X163177401Y-127703000D01*
X163217401Y-125750000D02*
X163217401Y-127630000D01*
X163257401Y-125831000D02*
X163257401Y-127549000D01*
X163297401Y-125922000D02*
X163297401Y-127458000D01*
X163337401Y-126027000D02*
X163337401Y-127353000D01*
X163377401Y-126153000D02*
X163377401Y-127227000D01*
X163417401Y-126320000D02*
X163417401Y-127060000D01*
X163457401Y-126690000D02*
G75*
G02*
X159217401Y-126690000I-2120000J0D01*
G01*
X159217401Y-126690000D02*
G75*
G02*
X163457401Y-126690000I2120000J0D01*
G01*
%TO.C,J5*%
X193800000Y-95600000D02*
X179100000Y-95600000D01*
X193800000Y-86400000D02*
X193800000Y-95600000D01*
X185000000Y-86400000D02*
X193800000Y-86400000D01*
X179950000Y-95800000D02*
X178900000Y-95800000D01*
X179100000Y-95600000D02*
X179100000Y-93000000D01*
X179100000Y-89100000D02*
X179100000Y-86400000D01*
X179100000Y-86400000D02*
X181000000Y-86400000D01*
X178900000Y-94750000D02*
X178900000Y-95800000D01*
%TO.C,R17*%
X150460000Y-135000000D02*
X151230000Y-135000000D01*
X158540000Y-135000000D02*
X157770000Y-135000000D01*
X151230000Y-133630000D02*
X157770000Y-133630000D01*
X157770000Y-136370000D01*
X151230000Y-136370000D01*
X151230000Y-133630000D01*
%TO.C,C1*%
X127130000Y-86630000D02*
X129870000Y-86630000D01*
X127130000Y-91870000D02*
X127130000Y-86630000D01*
X129870000Y-86630000D02*
X129870000Y-91870000D01*
X129870000Y-91870000D02*
X127130000Y-91870000D01*
%TO.C,R13*%
X142540000Y-112000000D02*
X143310000Y-112000000D01*
X150620000Y-112000000D02*
X149850000Y-112000000D01*
X143310000Y-110630000D02*
X149850000Y-110630000D01*
X149850000Y-113370000D01*
X143310000Y-113370000D01*
X143310000Y-110630000D01*
%TO.C,R6*%
X142460000Y-116500000D02*
X143230000Y-116500000D01*
X150540000Y-116500000D02*
X149770000Y-116500000D01*
X143230000Y-115130000D02*
X149770000Y-115130000D01*
X149770000Y-117870000D01*
X143230000Y-117870000D01*
X143230000Y-115130000D01*
%TO.C,D7*%
X158950050Y-95567618D02*
X159600050Y-95567618D01*
X160200050Y-94447618D02*
X160200050Y-96687618D01*
X160320050Y-94447618D02*
X160320050Y-96687618D01*
X160440050Y-94447618D02*
X160440050Y-96687618D01*
X164490050Y-95567618D02*
X163840050Y-95567618D01*
X159600050Y-94447618D02*
X163840050Y-94447618D01*
X163840050Y-96687618D01*
X159600050Y-96687618D01*
X159600050Y-94447618D01*
%TO.C,R2*%
X127770000Y-83190000D02*
X128540000Y-83190000D01*
X135850000Y-83190000D02*
X135080000Y-83190000D01*
X128540000Y-81820000D02*
X135080000Y-81820000D01*
X135080000Y-84560000D01*
X128540000Y-84560000D01*
X128540000Y-81820000D01*
%TO.C,C2*%
X130690302Y-114185000D02*
X131490302Y-114185000D01*
X131090302Y-113785000D02*
X131090302Y-114585000D01*
X135100000Y-112420000D02*
X135100000Y-120580000D01*
X135140000Y-112420000D02*
X135140000Y-120580000D01*
X135180000Y-112421000D02*
X135180000Y-120579000D01*
X135220000Y-112422000D02*
X135220000Y-120578000D01*
X135260000Y-112423000D02*
X135260000Y-120577000D01*
X135300000Y-112425000D02*
X135300000Y-120575000D01*
X135340000Y-112427000D02*
X135340000Y-120573000D01*
X135380000Y-112430000D02*
X135380000Y-120570000D01*
X135420000Y-112432000D02*
X135420000Y-120568000D01*
X135460000Y-112436000D02*
X135460000Y-120564000D01*
X135500000Y-112439000D02*
X135500000Y-120561000D01*
X135540000Y-112444000D02*
X135540000Y-120556000D01*
X135580000Y-112448000D02*
X135580000Y-120552000D01*
X135620000Y-112453000D02*
X135620000Y-120547000D01*
X135660000Y-112458000D02*
X135660000Y-120542000D01*
X135700000Y-112464000D02*
X135700000Y-120536000D01*
X135740000Y-112470000D02*
X135740000Y-120530000D01*
X135780000Y-112477000D02*
X135780000Y-120523000D01*
X135820000Y-112483000D02*
X135820000Y-120517000D01*
X135860000Y-112491000D02*
X135860000Y-120509000D01*
X135900000Y-112498000D02*
X135900000Y-120502000D01*
X135940000Y-112507000D02*
X135940000Y-120493000D01*
X135980000Y-112515000D02*
X135980000Y-115460000D01*
X135980000Y-117540000D02*
X135980000Y-120485000D01*
X136020000Y-112524000D02*
X136020000Y-115460000D01*
X136020000Y-117540000D02*
X136020000Y-120476000D01*
X136060000Y-112533000D02*
X136060000Y-115460000D01*
X136060000Y-117540000D02*
X136060000Y-120467000D01*
X136100000Y-112543000D02*
X136100000Y-115460000D01*
X136100000Y-117540000D02*
X136100000Y-120457000D01*
X136140000Y-112553000D02*
X136140000Y-115460000D01*
X136140000Y-117540000D02*
X136140000Y-120447000D01*
X136180000Y-112564000D02*
X136180000Y-115460000D01*
X136180000Y-117540000D02*
X136180000Y-120436000D01*
X136220000Y-112575000D02*
X136220000Y-115460000D01*
X136220000Y-117540000D02*
X136220000Y-120425000D01*
X136260000Y-112587000D02*
X136260000Y-115460000D01*
X136260000Y-117540000D02*
X136260000Y-120413000D01*
X136300000Y-112599000D02*
X136300000Y-115460000D01*
X136300000Y-117540000D02*
X136300000Y-120401000D01*
X136340000Y-112611000D02*
X136340000Y-115460000D01*
X136340000Y-117540000D02*
X136340000Y-120389000D01*
X136380000Y-112624000D02*
X136380000Y-115460000D01*
X136380000Y-117540000D02*
X136380000Y-120376000D01*
X136420000Y-112637000D02*
X136420000Y-115460000D01*
X136420000Y-117540000D02*
X136420000Y-120363000D01*
X136460000Y-112651000D02*
X136460000Y-115460000D01*
X136460000Y-117540000D02*
X136460000Y-120349000D01*
X136500000Y-112665000D02*
X136500000Y-115460000D01*
X136500000Y-117540000D02*
X136500000Y-120335000D01*
X136540000Y-112680000D02*
X136540000Y-115460000D01*
X136540000Y-117540000D02*
X136540000Y-120320000D01*
X136580000Y-112695000D02*
X136580000Y-115460000D01*
X136580000Y-117540000D02*
X136580000Y-120305000D01*
X136620000Y-112711000D02*
X136620000Y-115460000D01*
X136620000Y-117540000D02*
X136620000Y-120289000D01*
X136660000Y-112727000D02*
X136660000Y-115460000D01*
X136660000Y-117540000D02*
X136660000Y-120273000D01*
X136700000Y-112743000D02*
X136700000Y-115460000D01*
X136700000Y-117540000D02*
X136700000Y-120257000D01*
X136740000Y-112760000D02*
X136740000Y-115460000D01*
X136740000Y-117540000D02*
X136740000Y-120240000D01*
X136780000Y-112778000D02*
X136780000Y-115460000D01*
X136780000Y-117540000D02*
X136780000Y-120222000D01*
X136820000Y-112796000D02*
X136820000Y-115460000D01*
X136820000Y-117540000D02*
X136820000Y-120204000D01*
X136860000Y-112815000D02*
X136860000Y-115460000D01*
X136860000Y-117540000D02*
X136860000Y-120185000D01*
X136900000Y-112834000D02*
X136900000Y-115460000D01*
X136900000Y-117540000D02*
X136900000Y-120166000D01*
X136940000Y-112854000D02*
X136940000Y-115460000D01*
X136940000Y-117540000D02*
X136940000Y-120146000D01*
X136980000Y-112874000D02*
X136980000Y-115460000D01*
X136980000Y-117540000D02*
X136980000Y-120126000D01*
X137020000Y-112895000D02*
X137020000Y-115460000D01*
X137020000Y-117540000D02*
X137020000Y-120105000D01*
X137060000Y-112916000D02*
X137060000Y-115460000D01*
X137060000Y-117540000D02*
X137060000Y-120084000D01*
X137100000Y-112938000D02*
X137100000Y-115460000D01*
X137100000Y-117540000D02*
X137100000Y-120062000D01*
X137140000Y-112961000D02*
X137140000Y-115460000D01*
X137140000Y-117540000D02*
X137140000Y-120039000D01*
X137180000Y-112984000D02*
X137180000Y-115460000D01*
X137180000Y-117540000D02*
X137180000Y-120016000D01*
X137220000Y-113007000D02*
X137220000Y-115460000D01*
X137220000Y-117540000D02*
X137220000Y-119993000D01*
X137260000Y-113032000D02*
X137260000Y-115460000D01*
X137260000Y-117540000D02*
X137260000Y-119968000D01*
X137300000Y-113057000D02*
X137300000Y-115460000D01*
X137300000Y-117540000D02*
X137300000Y-119943000D01*
X137340000Y-113082000D02*
X137340000Y-115460000D01*
X137340000Y-117540000D02*
X137340000Y-119918000D01*
X137380000Y-113108000D02*
X137380000Y-115460000D01*
X137380000Y-117540000D02*
X137380000Y-119892000D01*
X137420000Y-113135000D02*
X137420000Y-115460000D01*
X137420000Y-117540000D02*
X137420000Y-119865000D01*
X137460000Y-113163000D02*
X137460000Y-115460000D01*
X137460000Y-117540000D02*
X137460000Y-119837000D01*
X137500000Y-113191000D02*
X137500000Y-115460000D01*
X137500000Y-117540000D02*
X137500000Y-119809000D01*
X137540000Y-113220000D02*
X137540000Y-115460000D01*
X137540000Y-117540000D02*
X137540000Y-119780000D01*
X137580000Y-113250000D02*
X137580000Y-115460000D01*
X137580000Y-117540000D02*
X137580000Y-119750000D01*
X137620000Y-113281000D02*
X137620000Y-115460000D01*
X137620000Y-117540000D02*
X137620000Y-119719000D01*
X137660000Y-113312000D02*
X137660000Y-115460000D01*
X137660000Y-117540000D02*
X137660000Y-119688000D01*
X137700000Y-113344000D02*
X137700000Y-115460000D01*
X137700000Y-117540000D02*
X137700000Y-119656000D01*
X137740000Y-113377000D02*
X137740000Y-115460000D01*
X137740000Y-117540000D02*
X137740000Y-119623000D01*
X137780000Y-113411000D02*
X137780000Y-115460000D01*
X137780000Y-117540000D02*
X137780000Y-119589000D01*
X137820000Y-113445000D02*
X137820000Y-115460000D01*
X137820000Y-117540000D02*
X137820000Y-119555000D01*
X137860000Y-113481000D02*
X137860000Y-115460000D01*
X137860000Y-117540000D02*
X137860000Y-119519000D01*
X137900000Y-113518000D02*
X137900000Y-115460000D01*
X137900000Y-117540000D02*
X137900000Y-119482000D01*
X137940000Y-113555000D02*
X137940000Y-115460000D01*
X137940000Y-117540000D02*
X137940000Y-119445000D01*
X137980000Y-113594000D02*
X137980000Y-115460000D01*
X137980000Y-117540000D02*
X137980000Y-119406000D01*
X138020000Y-113633000D02*
X138020000Y-115460000D01*
X138020000Y-117540000D02*
X138020000Y-119367000D01*
X138060000Y-113674000D02*
X138060000Y-119326000D01*
X138100000Y-113716000D02*
X138100000Y-119284000D01*
X138140000Y-113759000D02*
X138140000Y-119241000D01*
X138180000Y-113804000D02*
X138180000Y-119196000D01*
X138220000Y-113849000D02*
X138220000Y-119151000D01*
X138260000Y-113896000D02*
X138260000Y-119104000D01*
X138300000Y-113945000D02*
X138300000Y-119055000D01*
X138340000Y-113995000D02*
X138340000Y-119005000D01*
X138380000Y-114047000D02*
X138380000Y-118953000D01*
X138420000Y-114100000D02*
X138420000Y-118900000D01*
X138460000Y-114156000D02*
X138460000Y-118844000D01*
X138500000Y-114213000D02*
X138500000Y-118787000D01*
X138540000Y-114273000D02*
X138540000Y-118727000D01*
X138580000Y-114335000D02*
X138580000Y-118665000D01*
X138620000Y-114399000D02*
X138620000Y-118601000D01*
X138660000Y-114466000D02*
X138660000Y-118534000D01*
X138700000Y-114536000D02*
X138700000Y-118464000D01*
X138740000Y-114610000D02*
X138740000Y-118390000D01*
X138780000Y-114687000D02*
X138780000Y-118313000D01*
X138820000Y-114769000D02*
X138820000Y-118231000D01*
X138860000Y-114856000D02*
X138860000Y-118144000D01*
X138900000Y-114948000D02*
X138900000Y-118052000D01*
X138940000Y-115047000D02*
X138940000Y-117953000D01*
X138980000Y-115154000D02*
X138980000Y-117846000D01*
X139020000Y-115272000D02*
X139020000Y-117728000D01*
X139060000Y-115403000D02*
X139060000Y-117597000D01*
X139100000Y-115553000D02*
X139100000Y-117447000D01*
X139140000Y-115732000D02*
X139140000Y-117268000D01*
X139180000Y-115967000D02*
X139180000Y-117033000D01*
X139220000Y-116500000D02*
G75*
G02*
X130980000Y-116500000I-4120000J0D01*
G01*
X130980000Y-116500000D02*
G75*
G02*
X139220000Y-116500000I4120000J0D01*
G01*
%TO.C,R16*%
X134460000Y-135000000D02*
X135230000Y-135000000D01*
X142540000Y-135000000D02*
X141770000Y-135000000D01*
X135230000Y-133630000D02*
X141770000Y-133630000D01*
X141770000Y-136370000D01*
X135230000Y-136370000D01*
X135230000Y-133630000D01*
%TO.C,R11*%
X142770000Y-84690000D02*
X143540000Y-84690000D01*
X150850000Y-84690000D02*
X150080000Y-84690000D01*
X143540000Y-83320000D02*
X150080000Y-83320000D01*
X150080000Y-86060000D01*
X143540000Y-86060000D01*
X143540000Y-83320000D01*
%TO.C,D2*%
X160265000Y-108750000D02*
X163355000Y-108750000D01*
X160265170Y-108750000D02*
G75*
G02*
X161810000Y-103200000I1544830J2560000D01*
G01*
X161810000Y-103200000D02*
G75*
G02*
X163354830Y-108750000I0J-2990000D01*
G01*
X164310000Y-106190000D02*
G75*
G02*
X159310000Y-106190000I-2500000J0D01*
G01*
X159310000Y-106190000D02*
G75*
G02*
X164310000Y-106190000I2500000J0D01*
G01*
%TO.C,J4*%
X114100000Y-85094321D02*
X114100000Y-84044321D01*
X113900000Y-93444321D02*
X112000000Y-93444321D01*
X113900000Y-90744321D02*
X113900000Y-93444321D01*
X113900000Y-84244321D02*
X113900000Y-86844321D01*
X113050000Y-84044321D02*
X114100000Y-84044321D01*
X108000000Y-93444321D02*
X99200000Y-93444321D01*
X99200000Y-93444321D02*
X99200000Y-84244321D01*
X99200000Y-84244321D02*
X113900000Y-84244321D01*
%TO.C,BT1*%
X132940000Y-64802500D02*
X140260000Y-64802500D01*
X132940000Y-72842500D02*
X132940000Y-64802500D01*
X133748000Y-68222500D02*
X132940000Y-68222500D01*
X133748000Y-69222500D02*
X132940000Y-69222500D01*
X135017000Y-66922500D02*
X132940000Y-66922500D01*
X138680000Y-66922500D02*
X136103000Y-66922500D01*
X138680000Y-68222500D02*
X137372000Y-68222500D01*
X138680000Y-69222500D02*
X137372000Y-69222500D01*
X140860000Y-64802500D02*
X143680000Y-64802500D01*
X143680000Y-64802500D02*
X143680000Y-72842500D01*
X143680000Y-66922500D02*
X142440000Y-66922500D01*
X143680000Y-68222500D02*
X142440000Y-68222500D01*
X143680000Y-69222500D02*
X142440000Y-69222500D01*
X143680000Y-72842500D02*
X132940000Y-72842500D01*
X140560000Y-64802500D02*
X140120000Y-64192500D01*
X141000000Y-64192500D01*
X140560000Y-64802500D01*
G36*
X140560000Y-64802500D02*
G01*
X140120000Y-64192500D01*
X141000000Y-64192500D01*
X140560000Y-64802500D01*
G37*
%TO.C,SW3*%
D10*
X132492000Y-75912000D02*
X141128000Y-75912000D01*
X132492000Y-79468000D02*
X132492000Y-75912000D01*
X135210000Y-76790000D02*
X138410000Y-76790000D01*
D12*
X135210000Y-77690000D02*
X135210000Y-76877458D01*
X135210000Y-78502542D02*
X135210000Y-77690000D01*
D10*
X137810000Y-78452000D02*
X137810000Y-76928000D01*
X138410000Y-76790000D02*
X138410000Y-77690000D01*
X138410000Y-77690000D02*
X138410000Y-78590000D01*
X138410000Y-78590000D02*
X135210000Y-78590000D01*
X141128000Y-75912000D02*
X141128000Y-79468000D01*
X141128000Y-79468000D02*
X132492000Y-79468000D01*
%TO.C,R12*%
D11*
X158270000Y-90190000D02*
X159040000Y-90190000D01*
X166350000Y-90190000D02*
X165580000Y-90190000D01*
X159040000Y-88820000D02*
X165580000Y-88820000D01*
X165580000Y-91560000D01*
X159040000Y-91560000D01*
X159040000Y-88820000D01*
%TD*%
D13*
%TO.C,J9*%
X181100000Y-115000000D03*
X178000000Y-115000000D03*
X169700000Y-115000000D03*
%TD*%
%TO.C,J8*%
X124480000Y-114500000D03*
X121380000Y-114500000D03*
X113080000Y-114500000D03*
%TD*%
%TO.C,J6*%
X146830000Y-68690000D03*
X158230000Y-68690000D03*
X149930000Y-68690000D03*
%TD*%
M02*
